<?xml version="1.0" encoding="UTF-8"?>
<svg width="647px" height="96px" viewBox="0 0 647 96" version="1.1" xmlns="http://www.w3.org/2000/svg" xmlns:xlink="http://www.w3.org/1999/xlink">
    <!-- Generator: Sketch 52.6 (67491) - http://www.bohemiancoding.com/sketch -->
    <title>logolimp_eng</title>
    <desc>Created with Sketch.</desc>
    <defs>
        <polygon id="path-1" points="0.0721561338 0 550.791822 0 550.791822 96 0.0721561338 96"></polygon>
    </defs>
    <g id="Aktuell-design" stroke="none" stroke-width="1" fill="none" fill-rule="evenodd">
        <g id="logolimp_eng">
            <rect id="Rectangle" fill="#FFFFFF" x="1" y="1" width="549" height="94"></rect>
            <g id="en-sip-logo-program-rgb-horisontell-vektor">
                <g id="Group-3">
                    <mask id="mask-2" fill="white">
                        <use xlink:href="#path-1"></use>
                    </mask>
                    <g id="Clip-2"></g>
                    <path d="M0,96 L550.791822,96 L550.791822,0 L0,0 L0,96 Z M1.20260223,94.8 L549.589219,94.8 L549.589219,1.2 L1.20260223,1.2 L1.20260223,94.8 Z" id="Fill-1" fill="#2087A5" mask="url(#mask-2)"></path>
                </g>
                <polyline id="Fill-4" fill="#2087A5" points="550.793024 0 550.791822 96 616.731704 96 646.998797 65.7984 647 0 550.793024 0"></polyline>
                <path d="M565.040253,34.3488 C565.040253,35.5488 565.97708,36.0156 567.041383,36.0156 C567.73769,36.0156 568.801993,35.814 568.801993,34.8912 C568.801993,33.9192 567.44666,33.7536 566.116582,33.4008 C564.774478,33.0468 563.419145,32.5284 563.419145,30.8352 C563.419145,28.9908 565.166526,28.1064 566.800862,28.1064 C568.687745,28.1064 570.421898,28.9272 570.421898,31.0128 L568.497734,31.0128 C568.433996,29.9256 567.660723,29.6484 566.71187,29.6484 C566.079301,29.6484 565.344511,29.9136 565.344511,30.672 C565.344511,31.3668 565.775043,31.4544 568.041948,32.0364 C568.699771,32.1996 570.724954,32.6172 570.724954,34.6644 C570.724954,36.3192 569.421333,37.5576 566.964416,37.5576 C564.964489,37.5576 563.090835,36.5724 563.116089,34.3488 L565.040253,34.3488" id="Fill-5" fill="#FFFFFE"></path>
                <path d="M574.014071,30.81 L575.329717,30.81 L575.329717,32.0112 L574.014071,32.0112 L574.014071,35.2452 C574.014071,35.8512 574.165599,36.0024 574.772913,36.0024 C574.962924,36.0024 575.139706,35.9904 575.329717,35.952 L575.329717,37.3548 C575.025459,37.4052 574.633411,37.4184 574.278643,37.4184 C573.177059,37.4184 572.214978,37.1652 572.214978,35.8644 L572.214978,32.0112 L571.126623,32.0112 L571.126623,30.81 L572.214978,30.81 L572.214978,28.8528 L574.014071,28.8528 L574.014071,30.81" id="Fill-6" fill="#FFFFFE"></path>
                <path d="M576.282178,30.81 L577.992279,30.81 L577.992279,32.0232 L578.017533,32.0232 C578.347046,31.2024 579.232162,30.6336 580.106454,30.6336 C580.232727,30.6336 580.384255,30.6588 580.498502,30.6972 L580.498502,32.364 C580.333745,32.3268 580.069173,32.3016 579.853907,32.3016 C578.535855,32.3016 578.080069,33.2496 578.080069,34.3992 L578.080069,37.3428 L576.282178,37.3428 L576.282178,30.81" id="Fill-7" fill="#FFFFFE"></path>
                <path d="M585.307708,34.146 C585.00345,34.4112 584.370881,34.4244 583.814076,34.5252 C583.256069,34.6392 582.749773,34.8276 582.749773,35.4852 C582.749773,36.1548 583.269297,36.3192 583.851357,36.3192 C585.257199,36.3192 585.307708,35.2068 585.307708,34.8156 L585.307708,34.146 Z M581.155123,32.82 C581.256141,31.1388 582.763002,30.6336 584.231379,30.6336 C585.536203,30.6336 587.105599,30.924 587.105599,32.4912 L587.105599,35.8896 C587.105599,36.4836 587.169336,37.0776 587.334093,37.3428 L585.509745,37.3428 C585.446007,37.14 585.395498,36.9252 585.383472,36.7104 C584.813439,37.3044 583.978833,37.5192 583.180305,37.5192 C581.939219,37.5192 580.951883,36.9 580.951883,35.5608 C580.951883,34.0824 582.066695,33.7284 583.180305,33.5772 C584.281888,33.4128 585.307708,33.4512 585.307708,32.718 C585.307708,31.9476 584.776158,31.8336 584.142387,31.8336 C583.459309,31.8336 583.015548,32.112 582.95181,32.82 L581.155123,32.82 Z" id="Fill-8" fill="#FFFFFE"></path>
                <path d="M590.73866,30.81 L592.055509,30.81 L592.055509,32.0112 L590.73866,32.0112 L590.73866,35.2452 C590.73866,35.8512 590.890188,36.0024 591.498704,36.0024 C591.687513,36.0024 591.864296,35.9904 592.055509,35.952 L592.055509,37.3548 C591.751251,37.4052 591.358,37.4184 591.004435,37.4184 C589.901649,37.4184 588.94077,37.1652 588.94077,35.8644 L588.94077,32.0112 L587.851212,32.0112 L587.851212,30.81 L588.94077,30.81 L588.94077,28.8528 L590.73866,28.8528 L590.73866,30.81" id="Fill-9" fill="#FFFFFE"></path>
                <path d="M597.238725,33.3756 C597.073968,32.466 596.68192,31.9848 595.808831,31.9848 C594.667561,31.9848 594.339251,32.8704 594.313996,33.3756 L597.238725,33.3756 Z M594.313996,34.512 C594.364506,35.6496 594.92131,36.168 595.921875,36.168 C596.643437,36.168 597.225496,35.7252 597.339743,35.3208 L598.922368,35.3208 C598.417275,36.8628 597.339743,37.5192 595.85934,37.5192 C593.795675,37.5192 592.516106,36.1044 592.516106,34.0824 C592.516106,32.1252 593.870236,30.6336 595.85934,30.6336 C598.086559,30.6336 599.164091,32.5032 599.036615,34.512 L594.313996,34.512 Z" id="Fill-10" fill="#FFFFFE"></path>
                <path d="M604.6215,33.9948 C604.6215,32.9328 604.253504,31.9848 603.088182,31.9848 C602.076794,31.9848 601.633033,32.8704 601.633033,33.8424 C601.633033,34.7772 601.986599,35.8008 603.088182,35.8008 C604.115204,35.8008 604.6215,34.9296 604.6215,33.9948 Z M606.330398,36.9252 C606.330398,37.9992 605.950375,39.8184 602.936654,39.8184 C601.645059,39.8184 600.138199,39.2124 600.050409,37.722 L601.835071,37.722 C601.999827,38.3916 602.544606,38.6184 603.178377,38.6184 C604.178942,38.6184 604.633526,37.9356 604.6215,37.002 L604.6215,36.1428 L604.595043,36.1428 C604.202994,36.8244 603.418898,37.1532 602.632396,37.1532 C600.670952,37.1532 599.835143,35.6616 599.835143,33.8676 C599.835143,32.1756 600.810454,30.6336 602.645625,30.6336 C603.506688,30.6336 604.165714,30.924 604.595043,31.6824 L604.6215,31.6824 L604.6215,30.81 L606.330398,30.81 L606.330398,36.9252 Z" id="Fill-11" fill="#FFFFFE"></path>
                <path d="M607.772318,37.3416 L609.570208,37.3416 L609.570208,30.81 L607.772318,30.81 L607.772318,37.3416 Z M607.772318,29.7996 L609.570208,29.7996 L609.570208,28.3212 L607.772318,28.3212 L607.772318,29.7996 Z" id="Fill-12" fill="#FFFFFE"></path>
                <path d="M615.370359,33.1104 C615.256112,32.3772 614.788299,31.9848 614.041483,31.9848 C612.88939,31.9848 612.509368,33.1476 612.509368,34.1076 C612.509368,35.0436 612.876162,36.168 614.004203,36.168 C614.838809,36.168 615.319849,35.6364 615.434097,34.8408 L617.168249,34.8408 C616.940957,36.5724 615.738355,37.5192 614.016229,37.5192 C612.041556,37.5192 610.711478,36.1296 610.711478,34.1712 C610.711478,32.1372 611.927309,30.6336 614.053509,30.6336 C615.598853,30.6336 617.016721,31.4424 617.130968,33.1104 L615.370359,33.1104" id="Fill-13" fill="#FFFFFE"></path>
                <path d="M563.545418,51.3864 L565.344511,51.3864 L565.344511,44.8548 L563.545418,44.8548 L563.545418,51.3864 Z M563.545418,43.8444 L565.344511,43.8444 L565.344511,42.366 L563.545418,42.366 L563.545418,43.8444 Z" id="Fill-14" fill="#FFFFFE"></path>
                <path d="M566.733517,44.8548 L568.443617,44.8548 L568.443617,45.7644 L568.480898,45.7644 C568.936684,45.0312 569.721983,44.6772 570.480825,44.6772 C572.392963,44.6772 572.874004,45.7524 572.874004,47.3688 L572.874004,51.3864 L571.076113,51.3864 L571.076113,47.6976 C571.076113,46.6236 570.759829,46.0932 569.92402,46.0932 C568.949913,46.0932 568.531407,46.6356 568.531407,47.9628 L568.531407,51.3864 L566.733517,51.3864 L566.733517,44.8548" id="Fill-15" fill="#FFFFFE"></path>
                <path d="M574.24497,44.8548 L575.955071,44.8548 L575.955071,45.7644 L575.992351,45.7644 C576.448138,45.0312 577.233437,44.6772 577.992279,44.6772 C579.904416,44.6772 580.385457,45.7524 580.385457,47.3688 L580.385457,51.3864 L578.587567,51.3864 L578.587567,47.6976 C578.587567,46.6236 578.272485,46.0932 577.435474,46.0932 C576.461366,46.0932 576.042861,46.6356 576.042861,47.9628 L576.042861,51.3864 L574.24497,51.3864 L574.24497,44.8548" id="Fill-16" fill="#FFFFFE"></path>
                <path d="M584.862745,50.2116 C586.091805,50.2116 586.458599,49.1628 586.458599,48.1272 C586.458599,47.0784 586.091805,46.0296 584.862745,46.0296 C583.646914,46.0296 583.281323,47.0784 583.281323,48.1272 C583.281323,49.1628 583.646914,50.2116 584.862745,50.2116 Z M584.862745,44.6772 C586.927613,44.6772 588.256489,46.0428 588.256489,48.1272 C588.256489,50.1996 586.927613,51.564 584.862745,51.564 C582.812309,51.564 581.483433,50.1996 581.483433,48.1272 C581.483433,46.0428 582.812309,44.6772 584.862745,44.6772 Z" id="Fill-17" fill="#FFFFFE"></path>
                <polyline id="Fill-18" fill="#FFFFFE" points="592.751816 51.3864 590.750686 51.3864 588.509035 44.8548 590.395918 44.8548 591.775303 49.3152 591.80176 49.3152 593.181145 44.8548 594.965807 44.8548 592.751816 51.3864"></polyline>
                <path d="M599.566963,48.1908 C599.262704,48.456 598.628933,48.468 598.072128,48.57 C597.515323,48.6828 597.009028,48.8724 597.009028,49.5288 C597.009028,50.1996 597.527349,50.364 598.110612,50.364 C599.516454,50.364 599.566963,49.2516 599.566963,48.8604 L599.566963,48.1908 Z M595.413175,46.8636 C595.514193,45.1836 597.021054,44.6772 598.489431,44.6772 C599.794255,44.6772 601.364853,44.9688 601.364853,46.5348 L601.364853,49.9332 C601.364853,50.5272 601.427388,51.1224 601.592145,51.3864 L599.769,51.3864 C599.705262,51.1848 599.654753,50.97 599.641524,50.7552 C599.071491,51.3492 598.236885,51.564 597.439559,51.564 C596.198474,51.564 595.211138,50.9448 595.211138,49.6056 C595.211138,48.1272 596.324747,47.7732 597.439559,47.622 C598.539941,47.4576 599.566963,47.496 599.566963,46.7628 C599.566963,45.9924 599.03421,45.8784 598.401641,45.8784 C597.718563,45.8784 597.2736,46.1556 597.211065,46.8636 L595.413175,46.8636 Z" id="Fill-19" fill="#FFFFFE"></path>
                <path d="M604.997914,44.8548 L606.314764,44.8548 L606.314764,46.0548 L604.997914,46.0548 L604.997914,49.2888 C604.997914,49.896 605.149442,50.0472 605.757959,50.0472 C605.946768,50.0472 606.124753,50.034 606.314764,49.9968 L606.314764,51.3996 C606.010506,51.45 605.618457,51.4632 605.26369,51.4632 C604.162106,51.4632 603.200024,51.21 603.200024,49.9092 L603.200024,46.0548 L602.111669,46.0548 L602.111669,44.8548 L603.200024,44.8548 L603.200024,42.8964 L604.997914,42.8964 L604.997914,44.8548" id="Fill-20" fill="#FFFFFE"></path>
                <path d="M607.323747,51.3864 L609.121638,51.3864 L609.121638,44.8548 L607.323747,44.8548 L607.323747,51.3864 Z M607.323747,43.8444 L609.121638,43.8444 L609.121638,42.366 L607.323747,42.366 L607.323747,43.8444 Z" id="Fill-21" fill="#FFFFFE"></path>
                <path d="M613.643422,50.2116 C614.871279,50.2116 615.239275,49.1628 615.239275,48.1272 C615.239275,47.0784 614.871279,46.0296 613.643422,46.0296 C612.427591,46.0296 612.060797,47.0784 612.060797,48.1272 C612.060797,49.1628 612.427591,50.2116 613.643422,50.2116 Z M613.643422,44.6772 C615.707087,44.6772 617.037165,46.0428 617.037165,48.1272 C617.037165,50.1996 615.707087,51.564 613.643422,51.564 C611.592985,51.564 610.262907,50.1996 610.262907,48.1272 C610.262907,46.0428 611.592985,44.6772 613.643422,44.6772 Z" id="Fill-22" fill="#FFFFFE"></path>
                <path d="M618.159193,44.8548 L619.868091,44.8548 L619.868091,45.7644 L619.906574,45.7644 C620.362361,45.0312 621.14766,44.6772 621.906502,44.6772 C623.818639,44.6772 624.29968,45.7524 624.29968,47.3688 L624.29968,51.3864 L622.50179,51.3864 L622.50179,47.6976 C622.50179,46.6236 622.185506,46.0932 621.349697,46.0932 C620.374387,46.0932 619.957084,46.6356 619.957084,47.9628 L619.957084,51.3864 L618.159193,51.3864 L618.159193,44.8548" id="Fill-23" fill="#FFFFFE"></path>
                <path d="M568.35703,62.1828 C568.35703,61.1472 567.939727,60.0744 566.787634,60.0744 C565.610286,60.0744 565.230264,61.1232 565.230264,62.1828 C565.230264,63.2448 565.635541,64.2552 566.800862,64.2552 C567.97821,64.2552 568.35703,63.2448 568.35703,62.1828 Z M563.494909,58.8984 L565.205009,58.8984 L565.205009,59.7324 L565.230264,59.7324 C565.660796,59.0376 566.370331,58.722 567.180885,58.722 C569.231322,58.722 570.156123,60.378 570.156123,62.2332 C570.156123,63.978 569.194041,65.6076 567.281903,65.6076 C566.496604,65.6076 565.749788,65.2668 565.319257,64.6224 L565.294002,64.6224 L565.294002,67.7292 L563.494909,67.7292 L563.494909,58.8984 Z" id="Fill-24" fill="#FFFFFE"></path>
                <path d="M570.997944,58.8984 L572.708045,58.8984 L572.708045,60.1116 L572.732097,60.1116 C573.062812,59.2896 573.947928,58.722 574.821017,58.722 C574.948493,58.722 575.10002,58.7472 575.214268,58.7844 L575.214268,60.4524 C575.049511,60.4152 574.783736,60.3888 574.56847,60.3888 C573.251621,60.3888 572.795835,61.3368 572.795835,62.4864 L572.795835,65.43 L570.997944,65.43 L570.997944,58.8984" id="Fill-25" fill="#FFFFFE"></path>
                <path d="M578.810048,64.2552 C580.037905,64.2552 580.405901,63.2064 580.405901,62.1708 C580.405901,61.1232 580.037905,60.0744 578.810048,60.0744 C577.594217,60.0744 577.227424,61.1232 577.227424,62.1708 C577.227424,63.2064 577.594217,64.2552 578.810048,64.2552 Z M578.810048,58.722 C580.874916,58.722 582.203792,60.0864 582.203792,62.1708 C582.203792,64.2432 580.874916,65.6076 578.810048,65.6076 C576.759612,65.6076 575.429533,64.2432 575.429533,62.1708 C575.429533,60.0864 576.759612,58.722 578.810048,58.722 Z" id="Fill-26" fill="#FFFFFE"></path>
                <path d="M587.586639,62.082 C587.586639,61.0212 587.218643,60.0744 586.053322,60.0744 C585.04073,60.0744 584.598173,60.9576 584.598173,61.9308 C584.598173,62.8656 584.952941,63.8892 586.053322,63.8892 C587.080344,63.8892 587.586639,63.018 587.586639,62.082 Z M589.295537,65.0136 C589.295537,66.0876 588.915515,67.9068 585.901794,67.9068 C584.610199,67.9068 583.103338,67.3008 583.015548,65.8092 L584.80021,65.8092 C584.964967,66.4788 585.509745,66.7068 586.143517,66.7068 C587.144082,66.7068 587.598665,66.0252 587.586639,65.0892 L587.586639,64.23 L587.560182,64.23 C587.168134,64.9128 586.384037,65.2404 585.597535,65.2404 C583.636091,65.2404 582.800283,63.75 582.800283,61.956 C582.800283,60.2628 583.775593,58.722 585.610764,58.722 C586.471827,58.722 587.130853,59.0124 587.560182,59.7708 L587.586639,59.7708 L587.586639,58.8984 L589.295537,58.8984 L589.295537,65.0136 Z" id="Fill-27" fill="#FFFFFE"></path>
                <path d="M590.459656,58.8984 L592.169757,58.8984 L592.169757,60.1116 L592.195011,60.1116 C592.524524,59.2896 593.409639,58.722 594.283931,58.722 C594.411407,58.722 594.561732,58.7472 594.67598,58.7844 L594.67598,60.4524 C594.511223,60.4152 594.246651,60.3888 594.031385,60.3888 C592.713333,60.3888 592.257546,61.3368 592.257546,62.4864 L592.257546,65.43 L590.459656,65.43 L590.459656,58.8984" id="Fill-28" fill="#FFFFFE"></path>
                <path d="M599.231437,62.2332 C598.927178,62.4996 598.29461,62.5128 597.737805,62.6136 C597.179797,62.7276 596.673502,62.9172 596.673502,63.5736 C596.673502,64.2432 597.193026,64.4076 597.775086,64.4076 C599.180928,64.4076 599.231437,63.2952 599.231437,62.904 L599.231437,62.2332 Z M595.078851,60.9072 C595.17987,59.226 596.68673,58.722 598.155108,58.722 C599.459931,58.722 601.029327,59.0124 601.029327,60.5784 L601.029327,63.978 C601.029327,64.572 601.093065,65.166 601.257822,65.43 L599.433474,65.43 C599.370939,65.2284 599.320429,65.0136 599.307201,64.7988 C598.737167,65.3928 597.902561,65.6076 597.104033,65.6076 C595.864151,65.6076 594.875612,64.9884 594.875612,63.6492 C594.875612,62.1708 595.990424,61.818 597.104033,61.6656 C598.205617,61.5012 599.231437,61.5384 599.231437,60.8064 C599.231437,60.0348 598.699887,59.922 598.067318,59.922 C597.383037,59.922 596.939277,60.2004 596.875539,60.9072 L595.078851,60.9072 Z" id="Fill-29" fill="#FFFFFE"></path>
                <path d="M602.200662,58.8984 L603.897533,58.8984 L603.897533,59.7828 L603.923991,59.7828 C604.3906,59.1132 605.076084,58.722 605.923918,58.722 C606.746498,58.722 607.481288,59.0256 607.836056,59.808 C608.214875,59.2392 608.899156,58.722 609.810729,58.722 C611.203342,58.722 612.203907,59.3664 612.203907,61.0596 L612.203907,65.43 L610.406017,65.43 L610.406017,61.728 C610.406017,60.8568 610.330253,60.1368 609.304433,60.1368 C608.291842,60.1368 608.100628,60.9708 608.100628,61.7916 L608.100628,65.43 L606.302738,65.43 L606.302738,61.7664 C606.302738,61.0092 606.35445,60.1368 605.214383,60.1368 C604.859615,60.1368 603.998552,60.3648 603.998552,61.6404 L603.998552,65.43 L602.200662,65.43 L602.200662,58.8984" id="Fill-30" fill="#FFFFFE"></path>
                <path d="M613.390875,58.8984 L615.087747,58.8984 L615.087747,59.7828 L615.113002,59.7828 C615.580814,59.1132 616.265095,58.722 617.112929,58.722 C617.936712,58.722 618.670299,59.0256 619.025067,59.808 C619.405089,59.2392 620.08937,58.722 621.000942,58.722 C622.393556,58.722 623.394121,59.3664 623.394121,61.0596 L623.394121,65.43 L621.59623,65.43 L621.59623,61.728 C621.59623,60.8568 621.520467,60.1368 620.494647,60.1368 C619.480853,60.1368 619.290842,60.9708 619.290842,61.7916 L619.290842,65.43 L617.492952,65.43 L617.492952,61.7664 C617.492952,61.0092 617.544664,60.1368 616.404597,60.1368 C616.049829,60.1368 615.188766,60.3648 615.188766,61.6404 L615.188766,65.43 L613.390875,65.43 L613.390875,58.8984" id="Fill-31" fill="#FFFFFE"></path>
                <path d="M628.946535,61.464 C628.782981,60.5532 628.38973,60.0744 627.516641,60.0744 C626.376574,60.0744 626.047061,60.9576 626.023009,61.464 L628.946535,61.464 Z M626.023009,62.6004 C626.073519,63.7368 626.630323,64.2552 627.630888,64.2552 C628.351247,64.2552 628.934509,63.8136 629.047554,63.4092 L630.631381,63.4092 C630.125086,64.95 629.047554,65.6076 627.567151,65.6076 C625.503485,65.6076 624.225119,64.1916 624.225119,62.1708 C624.225119,60.2124 625.579249,58.722 627.567151,58.722 C629.79437,58.722 630.871901,60.5916 630.744426,62.6004 L626.023009,62.6004 Z" id="Fill-32" fill="#FFFFFE"></path>
                <path d="M632.879045,63.3084 C632.892273,64.0908 633.550097,64.4076 634.258429,64.4076 C634.777954,64.4076 635.43698,64.2048 635.43698,63.5736 C635.43698,63.03 634.690164,62.8404 633.397366,62.5632 C632.35952,62.3352 631.321675,61.9692 631.321675,60.8196 C631.321675,59.1516 632.764797,58.722 634.170639,58.722 C635.600533,58.722 636.917383,59.202 637.056885,60.8064 L635.347987,60.8064 C635.297478,60.1116 634.765928,59.922 634.12013,59.922 C633.714853,59.922 633.119565,59.9976 633.119565,60.528 C633.119565,61.1736 634.132156,61.2612 635.157976,61.5012 C636.20905,61.7412 637.23487,62.1204 637.23487,63.3324 C637.23487,65.052 635.741238,65.6076 634.246403,65.6076 C632.727517,65.6076 631.244708,65.0388 631.170147,63.3084 L632.879045,63.3084" id="Fill-33" fill="#FFFFFE"></path>
                <polyline id="Fill-34" fill="#000105" points="14.7414981 16.4544 13.7890372 16.4544 12.2208439 10.698 12.2028048 10.698 10.6153699 16.4544 9.66411152 16.4544 7.90350186 9.6036 8.83672119 9.6036 10.1836357 15.3024 10.2016747 15.3024 11.7410056 9.6036 12.7307472 9.6036 14.2508364 15.3024 14.2688755 15.3024 15.6638941 9.6036 16.5766691 9.6036 14.7414981 16.4544"></polyline>
                <path d="M17.5447639,16.4544 L18.3625335,16.4544 L18.3625335,11.4936 L17.5447639,11.4936 L17.5447639,16.4544 Z M17.5447639,10.602 L18.3625335,10.602 L18.3625335,9.6036 L17.5447639,9.6036 L17.5447639,10.602 Z" id="Fill-35" fill="#000105"></path>
                <path d="M20.9409126,11.4936 L21.9306543,11.4936 L21.9306543,12.2136 L20.9409126,12.2136 L20.9409126,15.294 C20.9409126,15.6672 21.0467416,15.7344 21.556645,15.7344 L21.9306543,15.7344 L21.9306543,16.4544 L21.3065037,16.4544 C20.4610743,16.4544 20.1231431,16.2816 20.1231431,15.3708 L20.1231431,12.2136 L19.2777138,12.2136 L19.2777138,11.4936 L20.1231431,11.4936 L20.1231431,10.0068 L20.9409126,10.0068 L20.9409126,11.4936" id="Fill-36" fill="#000105"></path>
                <path d="M22.9576766,9.6036 L23.7754461,9.6036 L23.7754461,12.2232 L23.7934851,12.2232 C24.0640706,11.628 24.7651877,11.3784 25.3616784,11.3784 C26.6689071,11.3784 27.0729814,12.1272 27.0729814,13.1928 L27.0729814,16.4544 L26.2552119,16.4544 L26.2552119,13.0968 C26.2552119,12.492 25.8715818,12.0984 25.2462286,12.0984 C24.2552844,12.0984 23.7754461,12.7608 23.7754461,13.6524 L23.7754461,16.4544 L22.9576766,16.4544 L22.9576766,9.6036" id="Fill-37" fill="#000105"></path>
                <path d="M31.5779294,14.8908 C31.6055892,15.6192 32.2417658,15.8496 32.9140204,15.8496 C33.4239238,15.8496 34.1154201,15.7344 34.1154201,15.1104 C34.1154201,14.478 33.3072714,14.3724 32.4919071,14.19 C31.6837584,14.0076 30.8659888,13.7388 30.8659888,12.7896 C30.8659888,11.7912 31.8557305,11.3784 32.7216041,11.3784 C33.8171747,11.3784 34.6938717,11.724 34.7600149,12.9324 L33.943448,12.9324 C33.885723,12.3 33.3277156,12.0984 32.7889498,12.0984 C32.2982881,12.0984 31.7318625,12.2328 31.7318625,12.732 C31.7318625,13.3164 32.5965335,13.4124 33.3553755,13.5948 C34.173145,13.7772 34.9812937,14.046 34.9812937,15.0048 C34.9812937,16.1856 33.8761022,16.5696 32.8659164,16.5696 C31.7499015,16.5696 30.8082639,16.1184 30.7601599,14.8908 L31.5779294,14.8908" id="Fill-38" fill="#000105"></path>
                <path d="M40.1813457,16.4544 L39.4116803,16.4544 L39.4116803,15.6672 L39.3936413,15.6672 C39.0472918,16.2816 38.4892844,16.5696 37.7773439,16.5696 C36.4701152,16.5696 36.0660409,15.8208 36.0660409,14.7564 L36.0660409,11.4936 L36.8838104,11.4936 L36.8838104,14.8512 C36.8838104,15.456 37.2674405,15.8496 37.8939963,15.8496 C38.8837379,15.8496 39.3635762,15.1884 39.3635762,14.2956 L39.3635762,11.4936 L40.1813457,11.4936 L40.1813457,16.4544" id="Fill-39" fill="#000105"></path>
                <path d="M43.9118178,12.0984 C42.8150446,12.0984 42.3917286,13.0392 42.3917286,13.9692 C42.3917286,14.9484 42.8342862,15.8496 43.9599219,15.8496 C45.0735316,15.8496 45.4499461,14.9004 45.4499461,13.9308 C45.4499461,12.9996 44.9689052,12.0984 43.9118178,12.0984 Z M41.6040242,11.4936 L42.4205911,11.4936 L42.4205911,12.1656 L42.4398327,12.1656 C42.7092156,11.6184 43.3441896,11.3784 44.0260651,11.3784 C45.5557751,11.3784 46.3146171,12.588 46.3146171,13.9884 C46.3146171,15.3888 45.5653959,16.5696 44.0453067,16.5696 C43.5354033,16.5696 42.8054238,16.3776 42.4398327,15.792 L42.4205911,15.792 L42.4205911,18.354 L41.6040242,18.354 L41.6040242,11.4936 Z" id="Fill-40" fill="#000105"></path>
                <path d="M49.7985558,12.0984 C48.7017825,12.0984 48.2784665,13.0392 48.2784665,13.9692 C48.2784665,14.9484 48.7222268,15.8496 49.8454572,15.8496 C50.9614721,15.8496 51.3378866,14.9004 51.3378866,13.9308 C51.3378866,12.9996 50.8556431,12.0984 49.7985558,12.0984 Z M47.4907621,11.4936 L48.307329,11.4936 L48.307329,12.1656 L48.3277732,12.1656 C48.5959535,11.6184 49.2297249,11.3784 49.9140056,11.3784 C51.442513,11.3784 52.201355,12.588 52.201355,13.9884 C52.201355,15.3888 51.4521338,16.5696 49.9320446,16.5696 C49.4233439,16.5696 48.6921617,16.3776 48.3277732,15.792 L48.307329,15.792 L48.307329,18.354 L47.4907621,18.354 L47.4907621,11.4936 Z" id="Fill-41" fill="#000105"></path>
                <path d="M55.518132,15.8496 C56.3731822,15.8496 57.065881,15.1776 57.065881,13.9788 C57.065881,12.7704 56.3731822,12.0984 55.518132,12.0984 C54.6618792,12.0984 53.9703829,12.7704 53.9703829,13.9788 C53.9703829,15.1776 54.6618792,15.8496 55.518132,15.8496 Z M55.518132,11.3784 C57.0959461,11.3784 57.9317546,12.5208 57.9317546,13.9788 C57.9317546,15.4272 57.0959461,16.5696 55.518132,16.5696 C53.9415204,16.5696 53.1045093,15.4272 53.1045093,13.9788 C53.1045093,12.5208 53.9415204,11.3784 55.518132,11.3784 Z" id="Fill-42" fill="#000105"></path>
                <path d="M59.0609981,11.4936 L59.8306636,11.4936 L59.8306636,12.54 L59.8511078,12.54 C60.2443587,11.7432 60.7927454,11.3508 61.676658,11.3784 L61.676658,12.2424 C60.3598086,12.2424 59.8787677,12.9912 59.8787677,14.2476 L59.8787677,16.4544 L59.0609981,16.4544 L59.0609981,11.4936" id="Fill-43" fill="#000105"></path>
                <path d="M63.9134981,11.4936 L64.9032398,11.4936 L64.9032398,12.2136 L63.9134981,12.2136 L63.9134981,15.294 C63.9134981,15.6672 64.0181245,15.7344 64.5280279,15.7344 L64.9032398,15.7344 L64.9032398,16.4544 L64.2778866,16.4544 C63.4324572,16.4544 63.0957286,16.2816 63.0957286,15.3708 L63.0957286,12.2136 L62.2502993,12.2136 L62.2502993,11.4936 L63.0957286,11.4936 L63.0957286,10.0068 L63.9134981,10.0068 L63.9134981,11.4936" id="Fill-44" fill="#000105"></path>
                <path d="M68.9163234,12.2136 L68.0781097,12.2136 L68.0781097,11.4936 L68.9163234,11.4936 L68.9163234,10.7544 C68.9163234,9.9492 69.3961617,9.5268 70.2896952,9.5268 C70.4436283,9.5268 70.6661097,9.5556 70.8200428,9.6036 L70.8200428,10.314 C70.6757305,10.266 70.5013532,10.2468 70.3582435,10.2468 C69.96379,10.2468 69.7328903,10.3716 69.7328903,10.8024 L69.7328903,11.4936 L70.6937695,11.4936 L70.6937695,12.2136 L69.7328903,12.2136 L69.7328903,16.4544 L68.9163234,16.4544 L68.9163234,12.2136" id="Fill-45" fill="#000105"></path>
                <path d="M71.593316,11.4936 L72.3629814,11.4936 L72.3629814,12.54 L72.382223,12.54 C72.7778792,11.7432 73.3250632,11.3508 74.2089758,11.3784 L74.2089758,12.2424 C72.8921264,12.2424 72.4110855,12.9912 72.4110855,14.2476 L72.4110855,16.4544 L71.593316,16.4544 L71.593316,11.4936" id="Fill-46" fill="#000105"></path>
                <path d="M77.1276914,15.8496 C77.9827416,15.8496 78.6754405,15.1776 78.6754405,13.9788 C78.6754405,12.7704 77.9827416,12.0984 77.1276914,12.0984 C76.2714387,12.0984 75.5799424,12.7704 75.5799424,13.9788 C75.5799424,15.1776 76.2714387,15.8496 77.1276914,15.8496 Z M77.1276914,11.3784 C78.704303,11.3784 79.5413141,12.5208 79.5413141,13.9788 C79.5413141,15.4272 78.704303,16.5696 77.1276914,16.5696 C75.5498773,16.5696 74.7140688,15.4272 74.7140688,13.9788 C74.7140688,12.5208 75.5498773,11.3784 77.1276914,11.3784 Z" id="Fill-47" fill="#000105"></path>
                <path d="M80.6861914,11.4936 L81.4546543,11.4936 L81.4546543,12.2232 L81.4738959,12.2232 C81.839487,11.6664 82.3974944,11.3784 83.0805725,11.3784 C83.6854814,11.3784 84.2434888,11.6184 84.445526,12.2232 C84.7822546,11.6952 85.3679219,11.3784 86.0040985,11.3784 C86.9938401,11.3784 87.6576766,11.7912 87.6576766,12.8184 L87.6576766,16.4544 L86.8399071,16.4544 L86.8399071,13.2024 C86.8399071,12.588 86.6763532,12.0984 85.8778253,12.0984 C85.0901208,12.0984 84.5802175,12.5976 84.5802175,13.3644 L84.5802175,16.4544 L83.762448,16.4544 L83.762448,13.2024 C83.762448,12.5592 83.5604108,12.0984 82.8304312,12.0984 C81.8587286,12.0984 81.5027584,12.9912 81.5027584,13.3644 L81.5027584,16.4544 L80.6861914,16.4544 L80.6861914,11.4936" id="Fill-48" fill="#000105"></path>
                <path d="M401.251842,49.2 C401.251842,45.4272 398.347558,42.5544 394.542524,42.5544 C390.762745,42.5544 387.833206,45.4272 387.833206,49.2 C387.833206,52.9728 390.762745,55.8444 394.542524,55.8444 C398.347558,55.8444 401.251842,52.9728 401.251842,49.2 Z M385.179063,49.2 C385.179063,44.1288 389.360511,40.0812 394.542524,40.0812 C399.72574,40.0812 403.905985,44.1288 403.905985,49.2 C403.905985,54.2712 399.72574,58.3188 394.542524,58.3188 C389.360511,58.3188 385.179063,54.2712 385.179063,49.2 Z" id="Fill-49" fill="#000105"></path>
                <path d="M411.392184,42.954 L411.392184,47.976 L414.54661,47.976 C416.04866,47.976 417.19955,46.926 417.19955,45.4524 C417.19955,44.004 416.04866,42.954 414.54661,42.954 L411.392184,42.954 Z M417.500201,57.9432 L411.392184,50.2752 L411.392184,57.9432 L408.78855,57.9432 L408.78855,40.4808 L414.521355,40.4808 C417.449691,40.4808 419.803184,42.6048 419.803184,45.4524 C419.803184,48.2748 417.525455,50.3748 414.67168,50.4492 L420.705136,57.9432 L417.500201,57.9432 Z" id="Fill-50" fill="#000105"></path>
                <polyline id="Fill-51" fill="#000105" points="443.862444 40.1064 443.862444 57.9432 441.25881 57.9432 441.25881 45.5028 435.099082 50.6244 428.915301 45.4776 428.915301 57.9432 426.311667 57.9432 426.311667 40.1064 426.362177 40.1064 435.099082 47.376 443.811935 40.1064 443.862444 40.1064"></polyline>
                <path d="M458.557041,50.4492 L456.404383,45.8028 L454.250522,50.4492 L458.557041,50.4492 Z M459.682677,52.9224 L453.123684,52.9224 L450.795446,57.9432 L448.117251,57.9432 L456.404383,40.1064 L456.45369,40.1064 L464.739619,57.9432 L462.012117,57.9432 L459.682677,52.9224 Z" id="Fill-52" fill="#000105"></path>
                <path d="M468.494143,55.4712 L473.650901,55.4712 C475.1289,55.4712 476.306247,54.4212 476.306247,52.9728 C476.306247,51.498 475.1289,50.4492 473.650901,50.4492 L473.025548,50.4492 C470.121264,50.4492 467.742517,48.3264 467.742517,45.4524 C467.742517,42.6048 470.121264,40.4808 473.025548,40.4808 L478.133,40.4808 L478.133,42.954 L473.000294,42.954 C471.523498,42.954 470.346151,44.004 470.346151,45.4524 C470.346151,46.926 471.523498,47.976 473.000294,47.976 L473.626849,47.976 C476.531134,47.976 478.909881,50.0988 478.909881,52.9728 C478.909881,55.8204 476.531134,57.9432 473.626849,57.9432 L468.494143,57.9432 L468.494143,55.4712" id="Fill-53" fill="#000105"></path>
                <polyline id="Fill-54" fill="#000105" points="380.989197 47.976 380.989197 50.4492 374.028535 50.4492 374.028535 57.9432 371.500665 57.9432 371.500665 47.958 380.989197 47.976"></polyline>
                <polyline id="Fill-55" fill="#000105" points="371.500665 42.9684 371.500665 40.4808 380.989197 40.4808 380.989197 42.954 371.500665 42.9684"></polyline>
                <path d="M491.738039,42.4776 C491.738039,43.7172 490.730258,44.7216 489.486768,44.7216 C488.24448,44.7216 487.237901,43.7172 487.237901,42.4776 C487.237901,41.238 488.24448,40.2324 489.486768,40.2324 C490.730258,40.2324 491.738039,41.238 491.738039,42.4776" id="Fill-56" fill="#F5BC36"></path>
                <path d="M498.48584,42.4776 C498.48584,43.7172 497.478059,44.7216 496.235771,44.7216 C494.994686,44.7216 493.986905,43.7172 493.986905,42.4776 C493.986905,41.238 494.994686,40.2324 496.235771,40.2324 C497.478059,40.2324 498.48584,41.238 498.48584,42.4776" id="Fill-57" fill="#701F1F"></path>
                <path d="M505.233641,42.4776 C505.233641,43.7172 504.225861,44.7216 502.984775,44.7216 C501.742487,44.7216 500.734706,43.7172 500.734706,42.4776 C500.734706,41.238 501.742487,40.2324 502.984775,40.2324 C504.225861,40.2324 505.233641,41.238 505.233641,42.4776" id="Fill-58" fill="#165C68"></path>
                <path d="M491.738039,49.2108 C491.738039,50.4504 490.730258,51.456 489.486768,51.456 C488.24448,51.456 487.237901,50.4504 487.237901,49.2108 C487.237901,47.9712 488.24448,46.9668 489.486768,46.9668 C490.730258,46.9668 491.738039,47.9712 491.738039,49.2108" id="Fill-59" fill="#1F749E"></path>
                <path d="M498.48584,49.2108 C498.48584,50.4504 497.478059,51.456 496.235771,51.456 C494.994686,51.456 493.986905,50.4504 493.986905,49.2108 C493.986905,47.9712 494.994686,46.9668 496.235771,46.9668 C497.478059,46.9668 498.48584,47.9712 498.48584,49.2108" id="Fill-60" fill="#10944B"></path>
                <path d="M491.738039,55.9452 C491.738039,57.1836 490.730258,58.1892 489.486768,58.1892 C488.24448,58.1892 487.237901,57.1836 487.237901,55.9452 C487.237901,54.7056 488.24448,53.7 489.486768,53.7 C490.730258,53.7 491.738039,54.7056 491.738039,55.9452" id="Fill-61" fill="#BB952F"></path>
                <path d="M257.813866,42.9384 C257.97742,41.8932 257.133193,41.544 256.454926,41.2632 L256.310613,41.2032 C255.124848,40.6716 254.432149,40.0584 254.651022,38.6544 C254.898758,37.0632 256.285359,35.8164 257.807853,35.8164 C258.567898,35.8164 259.606946,36.1836 260.109634,36.7956 C259.994184,36.936 259.312309,37.7652 259.177617,37.9296 C258.854117,37.4556 258.424788,37.1832 257.863173,37.1832 C257.156043,37.1832 256.494612,37.7256 256.391188,38.394 C256.269725,39.1728 256.958816,39.4896 257.688796,39.8268 C258.700184,40.29 259.843859,40.8168 259.558842,42.6516 C259.250976,44.628 257.845134,45.906 255.978695,45.906 C254.833818,45.906 253.990794,45.3072 253.460446,44.1444 C253.584314,44.0376 254.444175,43.2972 254.652225,43.1184 C254.844641,43.7964 255.376191,44.4624 256.228836,44.4624 C257.112749,44.4624 257.694809,43.6956 257.813866,42.9384" id="Fill-62" fill="#1A1919"></path>
                <path d="M265.836426,39.2928 C265.879719,39.474 266.826167,43.4664 266.826167,43.4664 C266.826167,43.4664 268.791219,39.63 268.857362,39.5016 C268.977623,39.5016 270.183833,39.5016 270.512143,39.5016 C270.299283,39.8544 266.792494,45.6636 266.725149,45.7764 C266.621725,45.7764 266.129861,45.7764 265.984346,45.7764 C265.948268,45.5856 265.200249,41.646 265.200249,41.646 C265.200249,41.646 263.03316,45.6516 262.967017,45.7764 C262.85758,45.7764 262.342866,45.7764 262.206972,45.7764 C262.158868,45.6072 260.487251,39.8004 260.400664,39.5016 C260.659223,39.5016 261.933981,39.5016 262.097535,39.5016 C262.134816,39.69 262.875619,43.4148 262.875619,43.4148 C262.875619,43.4148 265.077584,39.4164 265.146132,39.2928 C265.251961,39.2928 265.699329,39.2928 265.836426,39.2928" id="Fill-63" fill="#1A1919"></path>
                <path d="M286.808606,39.5016 C286.767717,39.7716 285.880197,45.4476 285.850132,45.6456 C285.680565,45.6456 284.530877,45.6456 284.304788,45.6456 C284.345677,45.3768 285.229589,39.6984 285.262059,39.5016 C285.431626,39.5016 286.582517,39.5016 286.808606,39.5016" id="Fill-64" fill="#1A1919"></path>
                <path d="M285.697401,37.3836 C285.549481,37.2072 285.490554,36.9708 285.529037,36.714 C285.612017,36.1848 286.120717,35.7372 286.641444,35.7372 C286.88437,35.7372 287.098433,35.8332 287.245151,36.0072 C287.395476,36.186 287.454403,36.4224 287.41592,36.6756 C287.331738,37.2132 286.832658,37.6512 286.303513,37.6512 C286.05698,37.6512 285.842916,37.5564 285.697401,37.3836 Z" id="Fill-65" fill="#1A1919"></path>
                <path d="M290.019554,43.902 C290.107344,43.3428 289.616682,43.1364 289.144059,42.9372 L288.844612,42.8052 C288.29382,42.5496 287.77189,42.2184 287.91981,41.2584 C288.100201,40.1016 289.00576,39.2928 290.121775,39.2928 C290.654528,39.2928 291.401344,39.4476 291.861941,39.8508 C291.729654,40.0008 291.206522,40.5924 291.092275,40.7196 C290.836121,40.4748 290.540281,40.3212 290.230009,40.3212 C289.894483,40.3212 289.495219,40.5828 289.435089,40.9728 C289.36173,41.4372 289.811504,41.6256 290.285329,41.826 L290.659338,41.9892 C291.2426,42.264 291.759719,42.66 291.599773,43.6932 C291.378494,45.114 290.083292,45.8556 288.919173,45.8556 C288.138684,45.8556 287.468835,45.5004 287.040708,44.9052 C287.165779,44.7684 287.73942,44.142 287.865693,44.004 C288.222866,44.4408 288.632954,44.6976 289.074309,44.6976 C289.550539,44.6976 289.9486,44.3628 290.019554,43.902" id="Fill-66" fill="#1A1919"></path>
                <path d="M295.550322,34.8528 C295.507028,35.124 294.700082,40.3128 294.700082,40.3128 L295.003138,39.9924 C295.395186,39.5424 295.986866,39.2928 296.666336,39.2928 C297.278461,39.2928 297.730639,39.4596 298.006035,39.7896 C298.248961,40.0776 298.370424,40.5036 298.370424,41.0616 C298.370424,41.2992 298.348777,41.5608 298.303078,41.8452 C298.303078,41.8452 297.743868,45.4476 297.711398,45.6456 C297.543033,45.6456 296.392143,45.6456 296.164851,45.6456 C296.206942,45.3828 296.683173,42.324 296.683173,42.324 C296.725264,42.0552 296.770963,41.7708 296.770963,41.5056 C296.770963,41.2248 296.720454,40.968 296.56171,40.7796 C296.407777,40.596 296.168459,40.5024 295.84977,40.5024 C294.668814,40.5024 294.457156,41.8584 294.344112,42.5868 C294.344112,42.5868 293.944848,45.1488 293.867881,45.6456 C293.698314,45.6456 292.547424,45.6456 292.321335,45.6456 C292.363426,45.3696 293.972507,35.0556 294.004978,34.8528 C294.173342,34.8528 295.324232,34.8528 295.550322,34.8528" id="Fill-67" fill="#1A1919"></path>
                <path d="M270.929446,45.0444 C270.448405,44.4732 270.266812,43.6224 270.41834,42.6516 C270.74184,40.5804 272.070716,39.2928 273.887848,39.2928 C274.702009,39.2928 275.321349,39.5388 275.729032,40.0248 C276.092217,40.4568 276.277418,41.064 276.277418,41.8068 C276.277418,42.0636 276.255771,42.3372 276.210072,42.6264 C276.210072,42.6264 276.201654,42.684 276.193236,42.7428 C275.994807,42.7428 272.053879,42.7428 272.053879,42.7428 L272.038245,42.8472 C272.016599,42.9768 271.998559,43.146 271.998559,43.3284 C271.998559,43.674 272.0635,44.0712 272.306426,44.358 C272.50245,44.5908 272.780251,44.7096 273.132613,44.7096 C273.672582,44.7096 274.133178,44.406 274.514403,43.8456 C274.614219,43.8624 275.595543,44.0304 275.875749,44.0772 C275.257612,45.1848 274.171662,45.8556 272.916145,45.8556 C272.062297,45.8556 271.374409,45.5748 270.929446,45.0444 Z M272.267942,41.6988 L272.222243,41.8584 L274.901641,41.8584 L274.904046,41.736 C274.912465,41.2836 274.775368,40.8792 274.528835,40.6236 C274.337621,40.4256 274.082669,40.3212 273.791639,40.3212 C272.963046,40.3212 272.453143,41.0628 272.267942,41.6988 Z" id="Fill-68" fill="#1A1919"></path>
                <path d="M284.465937,34.8528 C284.422643,35.13 282.813561,45.444 282.782294,45.6456 C282.612727,45.6456 281.463039,45.6456 281.23695,45.6456 C281.262204,45.48 281.372844,44.7696 281.372844,44.7696 L281.069788,45.09 C280.658498,45.5628 279.997067,45.8556 279.344054,45.8556 C278.65376,45.8556 278.076511,45.6012 277.672437,45.12 C277.162533,44.5128 276.949673,43.5564 277.103606,42.5604 C277.350139,40.9764 278.582807,39.2928 280.379494,39.2928 C281.014468,39.2928 281.584502,39.5748 281.869519,40.0296 L282.041491,40.3056 L282.118457,39.9828 C282.118457,39.9828 282.88692,35.0532 282.918188,34.8528 C283.088957,34.8528 284.238645,34.8528 284.465937,34.8528 Z M278.679015,42.5484 C278.591225,43.1124 278.725916,43.6716 279.03739,44.0436 C279.281519,44.334 279.617045,44.4888 280.005485,44.4888 C280.988011,44.4888 281.751664,43.5012 281.892368,42.5868 C281.980158,42.0276 281.846669,41.4732 281.538803,41.1048 C281.293472,40.8132 280.956743,40.6596 280.56229,40.6596 C279.579764,40.6596 278.820922,41.6388 278.679015,42.5484 Z" id="Fill-69" fill="#1A1919"></path>
                <path d="M250.575403,49.2348 C250.54173,49.458 250.381784,50.4864 250.355327,50.6532 C250.160506,50.6532 247.24179,50.6532 247.24179,50.6532 L246.866578,53.0628 C246.866578,53.0628 249.604903,53.0628 249.865868,53.0628 C249.830993,53.2848 249.668641,54.3144 249.643387,54.4812 C249.448565,54.4812 246.644097,54.4812 246.644097,54.4812 L246.191918,57.3852 C246.191918,57.3852 249.045693,57.3852 249.305455,57.3852 C249.27058,57.6096 249.111836,58.6368 249.084177,58.8048 C248.890558,58.8048 244.59847,58.8048 244.3351,58.8048 C244.377191,58.5288 245.795059,49.4364 245.82753,49.2348 C246.021149,49.2348 250.312033,49.2348 250.575403,49.2348" id="Fill-70" fill="#1A1919"></path>
                <path d="M253.176632,53.1996 C253.565072,52.7172 254.156753,52.4508 254.844641,52.4508 C255.456766,52.4508 255.907742,52.6188 256.18434,52.9476 C256.427266,53.2356 256.549931,53.6628 256.549931,54.2196 C256.549931,54.456 256.525879,54.7176 256.481383,55.0032 C256.481383,55.0032 255.97148,58.2864 255.889703,58.8048 C255.721338,58.8048 254.570448,58.8048 254.343156,58.8048 C254.384045,58.5408 254.861478,55.482 254.861478,55.482 C254.903569,55.2132 254.949268,54.9276 254.949268,54.6636 C254.949268,54.3828 254.898758,54.126 254.740015,53.9376 C254.586082,53.754 254.345561,53.6616 254.028074,53.6616 C252.848322,53.6616 252.635461,55.0176 252.521214,55.7448 C252.521214,55.7448 252.123152,58.3068 252.046186,58.8048 C251.876619,58.8048 250.725729,58.8048 250.499639,58.8048 C250.54173,58.5348 251.425643,52.8576 251.456911,52.6596 C251.625275,52.6596 252.777368,52.6596 253.003457,52.6596 C252.978203,52.824 252.863955,53.5548 252.863955,53.5548 L253.176632,53.1996" id="Fill-71" fill="#1A1919"></path>
                <path d="M266.389623,53.2776 C266.818952,52.7364 267.374554,52.4508 267.995097,52.4508 C268.175487,52.4508 268.365498,52.506 268.559117,52.5756 C268.502595,52.7748 268.198336,53.8392 268.146625,54.0252 C267.959019,53.916 267.761792,53.8176 267.523677,53.8176 C266.224866,53.8176 265.874909,54.936 265.702937,56.0316 C265.702937,56.0316 265.346967,58.3176 265.271203,58.8048 C265.101636,58.8048 263.951948,58.8048 263.724656,58.8048 C263.766747,58.5348 264.651862,52.8576 264.68313,52.6596 C264.852697,52.6596 266.002385,52.6596 266.229677,52.6596 C266.200814,52.836 266.076946,53.6376 266.076946,53.6376 L266.389623,53.2776" id="Fill-72" fill="#1A1919"></path>
                <path d="M282.539368,52.6596 C282.312076,53.0244 276.659846,62.1048 276.590095,62.2164 C276.478253,62.2164 275.245586,62.2164 274.907654,62.2164 C275.126528,61.8672 277.578634,57.9684 277.578634,57.9684 C277.578634,57.9684 275.886572,52.9692 275.781946,52.6596 C276.053734,52.6596 277.397041,52.6596 277.553379,52.6596 C277.599078,52.8348 278.535905,56.4816 278.535905,56.4816 C278.535905,56.4816 280.760719,52.7748 280.831673,52.6596 C280.943515,52.6596 282.202639,52.6596 282.539368,52.6596" id="Fill-73" fill="#1A1919"></path>
                <path d="M310.918375,53.1996 C311.308019,52.7172 311.900901,52.4508 312.589993,52.4508 C313.199712,52.4508 313.65189,52.6188 313.928489,52.9476 C314.170212,53.2356 314.291675,53.6628 314.291675,54.2196 C314.291675,54.4572 314.270028,54.7188 314.226734,55.0032 C314.226734,55.0032 313.663916,58.6068 313.632649,58.8048 C313.464284,58.8048 312.313394,58.8048 312.086102,58.8048 C312.128193,58.5408 312.603221,55.4832 312.603221,55.4832 C312.647717,55.2144 312.692214,54.9276 312.692214,54.6636 C312.692214,54.3828 312.641704,54.126 312.484164,53.9388 C312.329028,53.754 312.08971,53.6616 311.772223,53.6616 C310.588862,53.6616 310.37961,55.0176 310.266565,55.7448 C310.266565,55.7448 309.8204,58.6092 309.790335,58.8048 C309.620768,58.8048 308.469877,58.8048 308.243788,58.8048 C308.285879,58.5348 309.170994,52.8576 309.201059,52.6596 C309.370626,52.6596 310.520314,52.6596 310.746403,52.6596 C310.721149,52.824 310.609307,53.5548 310.609307,53.5548 L310.918375,53.1996" id="Fill-74" fill="#1A1919"></path>
                <path d="M315.711948,58.1556 C315.20445,57.5508 314.995197,56.682 315.137104,55.7724 C315.432944,53.8788 317.014366,52.4508 318.817067,52.4508 C319.2945,52.4508 319.73345,52.5804 320.081002,52.8024 C320.058152,52.9452 319.903017,53.946 319.85371,54.2568 C319.519387,53.9256 319.173037,53.7396 318.719656,53.7396 C317.619275,53.7396 316.864041,54.7728 316.712513,55.7448 C316.621115,56.3328 316.741375,56.8608 317.049242,57.2268 C317.322232,57.5532 317.721496,57.7248 318.201335,57.7248 C318.601801,57.7248 319.014294,57.5328 319.3871,57.2496 C319.328173,57.6252 319.186266,58.5468 319.169429,58.656 C318.691996,58.8924 318.201335,59.0136 317.666177,59.0136 C316.860433,59.0136 316.184571,58.7172 315.711948,58.1556" id="Fill-75" fill="#1A1919"></path>
                <path d="M327.563593,52.6596 C327.336301,53.0244 321.685273,62.1048 321.61432,62.2164 C321.50368,62.2164 320.268608,62.2164 319.931879,62.2164 C320.150753,61.8672 322.602859,57.9684 322.602859,57.9684 C322.602859,57.9684 320.909595,52.9692 320.806171,52.6596 C321.077959,52.6596 322.422468,52.6596 322.577604,52.6596 C322.6221,52.8348 323.558928,56.4816 323.558928,56.4816 C323.558928,56.4816 325.783742,52.7748 325.854695,52.6596 C325.96774,52.6596 327.225662,52.6596 327.563593,52.6596" id="Fill-76" fill="#1A1919"></path>
                <path d="M257.908872,58.2024 C257.429033,57.6312 257.248643,56.7804 257.398968,55.8108 C257.722468,53.7384 259.050141,52.4508 260.868476,52.4508 C261.682638,52.4508 262.300775,52.698 262.710862,53.1828 C263.071643,53.616 263.258046,54.222 263.258046,54.9636 C263.258046,55.2216 263.2364,55.4952 263.190701,55.7844 C263.190701,55.7844 263.18108,55.8432 263.171459,55.9008 C262.97303,55.9008 259.034507,55.9008 259.034507,55.9008 L259.017671,56.0064 C258.998429,56.1348 258.979188,56.304 258.979188,56.4864 C258.979188,56.832 259.042926,57.228 259.285851,57.516 C259.481875,57.7488 259.760879,57.8676 260.112039,57.8676 C260.652007,57.8676 261.112604,57.5652 261.495032,57.0036 C261.592442,57.0216 262.576171,57.1872 262.855175,57.2352 C262.237037,58.3428 261.15229,59.0136 259.895571,59.0136 C259.041723,59.0136 258.355037,58.7328 257.908872,58.2024 Z M259.248571,54.858 L259.202872,55.0176 L261.88227,55.0176 L261.884675,54.8952 C261.89189,54.4416 261.755996,54.0372 261.509463,53.7804 C261.317046,53.5836 261.063297,53.478 260.772268,53.478 C259.943675,53.478 259.434974,54.222 259.248571,54.858 Z" id="Fill-77" fill="#1A1919"></path>
                <path d="M268.982433,58.302 C268.485758,57.7116 268.292139,56.7984 268.447275,55.7976 C268.705835,54.1332 269.936097,52.4508 271.785699,52.4508 C272.370164,52.4508 272.917348,52.7484 273.179515,53.2092 L273.35269,53.5128 L273.430859,53.1672 C273.430859,53.1672 273.488584,52.8036 273.511433,52.6596 C273.679797,52.6596 274.830688,52.6596 275.05798,52.6596 C275.015888,52.9332 274.145204,58.5192 274.145204,58.5192 C273.761574,60.972 272.577011,62.2164 270.622783,62.2164 C269.741275,62.2164 268.957178,61.9032 268.474935,61.3584 C268.139409,60.9792 267.966234,60.5028 267.966234,59.9664 C267.966234,59.9148 267.972247,59.8608 267.974652,59.8092 C268.165866,59.8092 269.465879,59.8092 269.645067,59.8092 C269.664309,60.1224 269.759314,60.3936 269.94692,60.5904 C270.159781,60.8112 270.461634,60.9276 270.823617,60.9276 C272.222243,60.9276 272.41947,59.6556 272.564985,58.7256 L272.692461,57.9 L272.39181,58.2072 C271.954063,58.6968 271.414095,59.0136 270.785134,59.0136 C270.093638,59.0136 269.372076,58.7676 268.982433,58.302 Z M270.032305,55.7196 C269.944515,56.2776 270.076801,56.832 270.387072,57.2004 C270.631201,57.492 270.967929,57.6456 271.36118,57.6456 C272.342504,57.6456 273.104954,56.6664 273.244455,55.758 C273.333448,55.1928 273.198757,54.6324 272.887283,54.2616 C272.641952,53.9712 272.307628,53.8176 271.919188,53.8176 C270.936662,53.8176 270.173009,54.8052 270.032305,55.7196 Z" id="Fill-78" fill="#1A1919"></path>
                <path d="M291.942515,48.9744 C291.982201,49.1652 293.925606,58.518 293.984533,58.8048 C293.741608,58.8048 292.38868,58.8048 292.223924,58.8048 C292.186643,58.6248 291.805418,56.7336 291.805418,56.7336 L288.273375,56.7336 C288.273375,56.7336 287.222301,58.6824 287.157361,58.8048 C287.0371,58.8048 285.763545,58.8048 285.449665,58.8048 C285.634866,58.4544 290.588385,49.1016 290.654528,48.9744 C290.777193,48.9744 291.780164,48.9744 291.942515,48.9744 Z M290.636489,51.6768 L288.937212,55.4196 L291.570911,55.4196 L290.822892,51.3216 L290.636489,51.6768 Z" id="Fill-79" fill="#1A1919"></path>
                <path d="M295.164286,58.3032 C294.668814,57.7128 294.475195,56.7984 294.629128,55.7976 C294.890093,54.1332 296.120355,52.4508 297.969957,52.4508 C298.553219,52.4508 299.100403,52.7484 299.362571,53.2092 L299.535745,53.5128 L299.613914,53.1672 C299.613914,53.1672 299.670437,52.8036 299.694489,52.6596 C299.862853,52.6596 301.012541,52.6596 301.23863,52.6596 C301.197742,52.9332 300.325855,58.5192 300.325855,58.5192 C299.945833,60.972 298.760067,62.2164 296.805838,62.2164 C295.924331,62.2164 295.142639,61.9032 294.660396,61.3584 C294.322465,60.9792 294.150493,60.5016 294.150493,59.9652 C294.150493,59.9148 294.155303,59.8608 294.157708,59.8092 C294.348922,59.8092 295.648935,59.8092 295.829325,59.8092 C295.847364,60.1224 295.94237,60.3936 296.129976,60.5904 C296.341634,60.8112 296.64469,60.9276 297.006673,60.9276 C298.405299,60.9276 298.602526,59.6556 298.746838,58.7256 L298.876719,57.9 L298.576069,58.2072 C298.138322,58.6968 297.448028,59.0136 296.817864,59.0136 C296.128773,59.0136 295.557537,58.7676 295.164286,58.3032 Z M296.214158,55.7196 C296.127571,56.2776 296.259857,56.832 296.570128,57.2004 C296.814257,57.492 297.152188,57.6456 297.544236,57.6456 C298.525559,57.6456 299.288009,56.6664 299.427511,55.758 C299.516504,55.1928 299.383015,54.6336 299.071541,54.2628 C298.825007,53.9712 298.490684,53.8176 298.102243,53.8176 C297.118515,53.8176 296.357268,54.8052 296.214158,55.7196 Z" id="Fill-80" fill="#1A1919"></path>
                <path d="M302.4725,58.2024 C301.992662,57.63 301.811069,56.7804 301.962597,55.8108 C302.284894,53.7384 303.61377,52.4508 305.432104,52.4508 C306.245063,52.4508 306.864403,52.6968 307.270883,53.1804 C307.635271,53.6148 307.820472,54.2232 307.820472,54.966 C307.820472,55.224 307.798825,55.4964 307.754329,55.7844 C307.754329,55.7844 307.744708,55.8432 307.73629,55.9008 C307.539063,55.9008 303.596933,55.9008 303.596933,55.9008 L303.581299,56.0064 C303.559652,56.1348 303.541613,56.304 303.541613,56.4852 C303.541613,56.8308 303.607757,57.2268 303.84948,57.516 C304.045504,57.7488 304.32571,57.8676 304.678072,57.8676 C305.214433,57.8676 305.676232,57.5652 306.057457,57.0036 C306.156071,57.0216 307.139799,57.1872 307.418803,57.2352 C306.800665,58.3428 305.715918,59.0136 304.459199,59.0136 C303.606554,59.0136 302.917463,58.7328 302.4725,58.2024 Z M303.812199,54.858 L303.7665,55.0176 L306.443493,55.0176 L306.4471,54.8952 C306.456721,54.444 306.320827,54.0384 306.073091,53.7828 C305.88308,53.5836 305.626926,53.478 305.333491,53.478 C304.5061,53.478 303.9974,54.222 303.812199,54.858 Z" id="Fill-81" fill="#1A1919"></path>
                <path d="M218.002922,48.7464 C218.002922,55.782 223.634708,61.5072 230.559292,61.5072 C233.249513,61.5072 235.814664,60.6552 237.976942,59.0424 L236.651675,57.2064 C234.876634,58.5288 232.769675,59.2284 230.559292,59.2284 C224.870983,59.2284 220.24337,54.5268 220.24337,48.7464 C220.24337,44.6016 222.65579,40.8396 226.38987,39.1608 L225.481905,37.0776 C220.938474,39.1212 218.002922,43.7016 218.002922,48.7464" id="Fill-82" fill="#1A1919"></path>
                <path d="M213.7409,48.7464 C213.7409,54.1584 216.303645,59.3052 220.596935,62.5188 L221.92581,60.684 C218.203757,57.8988 215.981348,53.4372 215.981348,48.7464 C215.981348,40.578 222.521099,33.9324 230.559292,33.9324 C235.616234,33.9324 240.24024,36.5388 242.926853,40.902 L244.826965,39.6948 C241.727859,34.6608 236.394318,31.6548 230.559292,31.6548 C221.284823,31.6548 213.7409,39.3228 213.7409,48.7464" id="Fill-83" fill="#1A1919"></path>
                <path d="M240.610641,39.0084 C243.089204,38.778 244.832978,39.4116 246.716253,40.488 C246.716253,40.5204 243.020656,40.4904 240.805463,41.6844 C238.853639,42.7356 236.906626,44.8344 235.400968,46.3548 C233.071528,48.708 228.915335,54.072 223.265509,54.6876 C217.794872,55.2852 214.468474,52.4352 214.373468,52.3596 C218.233822,52.9404 223.592617,52.932 229.522649,46.7148 C231.965134,44.154 236.338998,39.408 240.610641,39.0084" id="Fill-84" fill="#D6242C"></path>
                <polygon id="Fill-85" fill="#79BB44" points="56.270961 50.2044 59.7777491 50.2044 59.7777491 35.2944 56.270961 35.2944"></polygon>
                <polyline id="Fill-86" fill="#79BB44" points="137.375658 50.2044 144.382019 35.2944 140.766996 35.2944 135.671571 46.1724 130.572537 35.2944 126.957515 35.2944 133.963875 50.2044 137.375658 50.2044"></polyline>
                <polyline id="Fill-87" fill="#79BB44" points="45.5100762 50.2044 52.9806413 35.2944 49.1804182 35.2944 43.6195855 46.1724 33.2952454 35.2944 28.4704052 35.2944 42.2269721 50.2044 45.5100762 50.2044"></polyline>
                <polyline id="Fill-88" fill="#79BB44" points="150.744987 35.2944 143.273219 50.2044 147.074645 50.2044 152.634275 39.3276 162.958615 50.2044 167.784658 50.2044 154.026888 35.2944 150.744987 35.2944"></polyline>
                <polyline id="Fill-89" fill="#79BB44" points="69.0534201 40.4772 69.0534201 50.2044 65.5478346 50.2044 65.5478346 35.2944 69.0534201 35.2944 77.8973569 44.9808 77.8973569 35.2944 81.4029424 35.2944 81.4029424 50.2044 77.8973569 50.2044 69.0534201 40.4772"></polyline>
                <polyline id="Fill-90" fill="#79BB44" points="90.3190353 40.4772 90.3190353 50.2044 86.8122472 50.2044 86.8122472 35.2944 90.3190353 35.2944 99.1629721 44.9808 99.1629721 35.2944 102.668558 35.2944 102.668558 50.2044 99.1629721 50.2044 90.3190353 40.4772"></polyline>
                <path d="M107.495803,42.762 C107.495803,37.7808 110.750045,34.9944 116.19182,34.9944 C121.63119,34.9944 124.886634,37.7808 124.886634,42.762 C124.886634,47.9604 121.484472,50.8152 116.19182,50.8152 C110.897965,50.8152 107.495803,47.9604 107.495803,42.762 M116.19182,47.5524 C119.300546,47.5524 121.299271,45.8748 121.299271,42.822 C121.299271,39.8952 119.385931,38.2572 116.19182,38.2572 C112.996506,38.2572 111.083165,39.8952 111.083165,42.822 C111.083165,45.8748 113.083093,47.5524 116.19182,47.5524" id="Fill-91" fill="#79BB44"></path>
                <path d="M44.1691747,57.8136 C44.0645483,57.5424 43.9094126,57.3228 43.7025651,57.1548 C43.4945149,56.9868 43.2335502,56.9028 42.9160632,56.9028 C42.6238309,56.9028 42.3857156,56.964 42.1981097,57.0864 C42.0093011,57.21 41.9154981,57.4068 41.9154981,57.678 C41.9154981,57.8772 42.0044907,58.044 42.1824758,58.1772 C42.3616636,58.3092 42.584145,58.4316 42.8535279,58.5444 C43.1205056,58.6584 43.4115353,58.7736 43.7218067,58.8888 C44.0332807,59.0052 44.3231078,59.1492 44.5912881,59.3208 C44.860671,59.4912 45.0831524,59.7024 45.2611375,59.9556 C45.4391227,60.2076 45.5281152,60.5208 45.5281152,60.8952 C45.5281152,61.6188 45.3152546,62.1576 44.8871283,62.514 C44.4602045,62.8692 43.8540929,63.0456 43.0711989,63.0456 C42.7861822,63.0456 42.508381,63.0072 42.2365929,62.9292 C41.9648048,62.8524 41.7122584,62.742 41.4789535,62.6004 C41.2456487,62.4588 41.0400037,62.2824 40.8620186,62.076 C40.6840335,61.8708 40.5457342,61.6404 40.449526,61.3884 L41.5571227,60.9048 C41.7182714,61.2336 41.9142955,61.4988 42.1439926,61.6992 C42.3736896,61.8996 42.6863662,61.9992 43.0808197,61.9992 C43.249184,61.9992 43.4043197,61.9824 43.5462268,61.9512 C43.6893364,61.9188 43.8144071,61.866 43.9202361,61.7904 C44.0272677,61.7172 44.1126524,61.62 44.1739851,61.5 C44.2353178,61.38 44.2653829,61.2372 44.2653829,61.0692 C44.2653829,60.8436 44.1763903,60.654 43.9984052,60.5028 C43.8216227,60.3504 43.5967361,60.2136 43.3285558,60.0912 C43.0603755,59.9676 42.7705483,59.8488 42.460277,59.7312 C42.148803,59.616 41.8589758,59.4744 41.5895929,59.3112 C41.3214126,59.1456 41.0977286,58.9452 40.9209461,58.71 C40.7417584,58.4748 40.6527658,58.176 40.6527658,57.8136 C40.6527658,57.5028 40.7140985,57.2244 40.8379665,56.9796 C40.960632,56.7336 41.1253885,56.5284 41.3334387,56.3652 C41.5402862,56.1996 41.7796041,56.0748 42.0513922,55.986 C42.3231803,55.8996 42.6118048,55.8564 42.9160632,55.8564 C43.478881,55.8564 43.9815688,55.992 44.4205186,56.2632 C44.8618736,56.5344 45.1853736,56.9256 45.3922212,57.4344 L44.1691747,57.8136" id="Fill-92" fill="#79BB44"></path>
                <polyline id="Fill-93" fill="#79BB44" points="45.8383866 57.9108 46.9844665 57.9108 47.6747602 61.05 47.6940019 61.05 48.4227788 57.9108 49.5387937 57.9108 50.2375056 61.05 50.2567472 61.05 50.9759033 57.9108 52.1207807 57.9108 50.8207677 62.9496 49.7336152 62.9496 48.9843941 59.8092 48.966355 59.8092 48.2279572 62.9496 47.1396022 62.9496 45.8383866 57.9108"></polyline>
                <path d="M55.5012955,59.8092 C55.4880669,59.4612 55.3966691,59.1888 55.224697,58.9956 C55.0527249,58.8012 54.8218253,58.7052 54.5307955,58.7052 C54.2385632,58.7052 54.006461,58.8012 53.8356914,58.9956 C53.6649219,59.1888 53.571119,59.4612 53.5590929,59.8092 L55.5012955,59.8092 Z M53.5590929,60.624 C53.571119,61.146 53.6781506,61.5204 53.8801877,61.7424 C54.0810223,61.9668 54.3227454,62.076 54.6077621,62.076 C54.8855632,62.076 55.1056394,62.0208 55.2679907,61.908 C55.4291394,61.794 55.5854777,61.65 55.7346004,61.476 L56.6076896,62.0196 C56.3743848,62.3796 56.0857602,62.6424 55.7394108,62.8044 C55.3930613,62.9652 54.976961,63.0468 54.4911097,63.0468 C54.1615967,63.0468 53.8645539,62.9844 53.6023866,62.862 C53.3414219,62.7384 53.1177379,62.5656 52.9325372,62.3376 C52.7473364,62.112 52.6054294,61.8384 52.5056134,61.5156 C52.4045948,61.1916 52.3552881,60.8304 52.3552881,60.4296 C52.3552881,60.0288 52.4045948,59.6676 52.5056134,59.3448 C52.6054294,59.022 52.7497416,58.7472 52.9373476,58.5216 C53.1249535,58.2948 53.3546506,58.1208 53.6264387,57.9972 C53.8982268,57.8748 54.2060929,57.8136 54.5488346,57.8136 C54.8795502,57.8136 55.1717825,57.876 55.4279368,58.002 C55.6840911,58.128 55.8993569,58.2972 56.0737342,58.5108 C56.2493141,58.7244 56.3816004,58.9716 56.4717955,59.2524 C56.5631933,59.5332 56.6076896,59.826 56.6076896,60.1284 L56.6076896,60.624 L53.5590929,60.624 Z" id="Fill-94" fill="#79BB44"></path>
                <path d="M60.4536115,59.2092 C60.3309461,59.0988 60.1926468,59.0004 60.041119,58.9128 C59.8883885,58.8264 59.7152138,58.782 59.5215948,58.782 C59.1584089,58.782 58.8806078,58.9236 58.6857862,59.2032 C58.4921673,59.4852 58.3947565,59.8932 58.3947565,60.4296 C58.3947565,60.966 58.4921673,61.3752 58.6857862,61.6548 C58.8806078,61.9368 59.1584089,62.076 59.5215948,62.076 C59.6514758,62.076 59.7609126,62.0628 59.8523104,62.0328 C59.9425056,62.004 60.0218773,61.9692 60.089223,61.926 C60.1565688,61.884 60.2191041,61.8384 60.2744238,61.7868 C60.3297435,61.734 60.388671,61.6824 60.4536115,61.6308 L60.4536115,59.2092 Z M61.658619,62.9484 L60.6376097,62.9484 L60.5798848,62.4072 C60.3670242,62.6136 60.152961,62.772 59.9388978,62.8812 C59.7260372,62.9904 59.4831115,63.0456 59.2101208,63.0456 C58.8745948,63.0456 58.5787546,62.976 58.3274108,62.838 C58.0748643,62.6988 57.8644089,62.5068 57.6960446,62.2608 C57.5276803,62.016 57.4014071,61.7244 57.3172249,61.3896 C57.2330428,61.0536 57.1909517,60.6876 57.1909517,60.294 C57.1909517,59.9832 57.2342454,59.6796 57.3220353,59.382 C57.4086227,59.0856 57.5385037,58.8216 57.7104758,58.5888 C57.8812454,58.356 58.0941059,58.1688 58.3466524,58.026 C58.5991989,57.8844 58.8866208,57.8136 59.2101208,57.8136 C59.3147472,57.8136 59.424184,57.8268 59.5408364,57.8568 C59.6574888,57.8856 59.7729387,57.9252 59.8859833,57.9732 C59.9990279,58.0224 60.1036543,58.0812 60.2010651,58.152 C60.2984758,58.224 60.376645,58.2984 60.4343699,58.3764 L60.4536115,58.3764 L60.4536115,55.9536 L61.658619,55.9536 L61.658619,62.9484 Z" id="Fill-95" fill="#79BB44"></path>
                <path d="M65.5622658,59.8092 C65.5478346,59.4612 65.4564368,59.1888 65.2856673,58.9956 C65.1136952,58.8012 64.8815929,58.7052 64.5905632,58.7052 C64.2995335,58.7052 64.0674312,58.8012 63.8966617,58.9956 C63.7246896,59.1888 63.6332918,59.4612 63.6200632,59.8092 L65.5622658,59.8092 Z M63.6200632,60.624 C63.6332918,61.146 63.7403234,61.5204 63.941158,61.7424 C64.14079,61.9668 64.3837156,62.076 64.6687323,62.076 C64.9465335,62.076 65.1666097,62.0208 65.328961,61.908 C65.4913123,61.794 65.646448,61.65 65.7955706,61.476 L66.6698625,62.0196 C66.435355,62.3796 66.1455279,62.6424 65.7991784,62.8044 C65.4540316,62.9652 65.0379312,63.0468 64.5520799,63.0468 C64.2213643,63.0468 63.9267268,62.9844 63.6633569,62.862 C63.4011896,62.7384 63.1787082,62.5656 62.9923048,62.3376 C62.8083067,62.112 62.6663996,61.8384 62.5665836,61.5156 C62.4655651,61.1916 62.4150558,60.8304 62.4150558,60.4296 C62.4150558,60.0288 62.4655651,59.6676 62.5665836,59.3448 C62.6663996,59.022 62.8107119,58.7472 62.9983178,58.5216 C63.1859238,58.2948 63.4156208,58.1208 63.6874089,57.9972 C63.959197,57.8748 64.2670632,57.8136 64.6098048,57.8136 C64.9405204,57.8136 65.2327528,57.876 65.4889071,58.002 C65.7450613,58.128 65.9603271,58.2972 66.1347045,58.5108 C66.3090818,58.7244 66.4425706,58.9716 66.5327658,59.2524 C66.6241636,59.5332 66.6698625,59.826 66.6698625,60.1284 L66.6698625,60.624 L63.6200632,60.624 Z" id="Fill-96" fill="#79BB44"></path>
                <path d="M67.3685743,62.9496 L67.3685743,57.9108 L68.4749684,57.9108 L68.4749684,58.4532 C68.7010576,58.2984 68.9427807,58.152 69.1989349,58.0176 C69.4538866,57.8808 69.7304851,57.8136 70.0287305,57.8136 C70.5338234,57.8136 70.9090353,57.966 71.1555688,58.2696 C71.4021022,58.5732 71.5247677,58.9824 71.5247677,59.4996 L71.5247677,62.9496 L70.3197602,62.9496 L70.3197602,59.6748 C70.3197602,59.3304 70.2680483,59.0976 70.1646245,58.9728 C70.0612007,58.8456 69.9048625,58.782 69.6980149,58.782 C69.4322398,58.782 69.204948,58.842 69.0137342,58.962 C68.8225204,59.0808 68.675803,59.1996 68.5723792,59.316 L68.5723792,62.9496 L67.3685743,62.9496" id="Fill-97" fill="#79BB44"></path>
                <polyline id="Fill-98" fill="#79BB44" points="72.5337509 57.3276 71.9516914 57.3276 71.9516914 55.9536 73.2913903 55.9536 73.2913903 57.3276 72.6708476 58.782 72.0394814 58.782 72.5337509 57.3276"></polyline>
                <path d="M76.0309182,59.238 C75.9082528,59.1084 75.7663457,58.9872 75.6088048,58.8756 C75.4488587,58.7616 75.2768866,58.7052 75.0880781,58.7052 C74.8559758,58.7052 74.6840037,58.7496 74.5733643,58.8408 C74.4639275,58.9308 74.4086078,59.0496 74.4086078,59.1984 C74.4086078,59.3412 74.4723457,59.4552 74.598619,59.5428 C74.7236896,59.6304 74.8800279,59.7096 75.064026,59.7792 C75.2480242,59.8512 75.4512639,59.9244 75.6713401,59.9988 C75.8902138,60.0732 76.0934535,60.1728 76.2774517,60.2988 C76.4626524,60.426 76.6177881,60.5856 76.7440613,60.7824 C76.8703346,60.9804 76.9328699,61.23 76.9328699,61.5336 C76.9328699,61.7988 76.8859684,62.0256 76.7921654,62.2128 C76.6983625,62.4 76.5684814,62.5572 76.4037249,62.682 C76.2389684,62.808 76.0429442,62.9004 75.816855,62.9592 C75.5907658,63.018 75.3442323,63.0456 75.0784572,63.0456 C74.6707751,63.0456 74.3063866,62.9592 73.9852918,62.784 C73.6653996,62.61 73.3924089,62.358 73.1651171,62.028 L73.9708606,61.428 C74.1139703,61.6224 74.281132,61.7904 74.4723457,61.9356 C74.6623569,62.082 74.8872435,62.154 75.1470056,62.154 C75.3610688,62.154 75.5342435,62.1012 75.6665297,61.9944 C75.798816,61.8876 75.8649591,61.7508 75.8649591,61.5828 C75.8649591,61.4412 75.8024238,61.3248 75.6761506,61.2336 C75.5498773,61.1436 75.3947416,61.0632 75.2095409,60.9912 C75.0243401,60.9216 74.822303,60.8448 74.6034294,60.7644 C74.3821506,60.6828 74.181316,60.5808 73.9949126,60.4584 C73.8109145,60.336 73.6557788,60.18 73.5295056,59.994 C73.4032323,59.8068 73.3394944,59.568 73.3394944,59.2776 C73.3394944,59.0436 73.3851933,58.8348 73.4765911,58.6512 C73.5667862,58.4676 73.6894517,58.3152 73.8445874,58.1904 C74.0009257,58.0692 74.1789108,57.9756 74.3797454,57.9108 C74.5805799,57.846 74.7898327,57.8136 75.0111115,57.8136 C75.3466375,57.8136 75.6725428,57.876 75.9864219,58.002 C76.3003011,58.128 76.5684814,58.3212 76.7885576,58.578 L76.0309182,59.238" id="Fill-99" fill="#79BB44"></path>
                <polygon id="Fill-100" fill="#79BB44" points="80.9724108 62.9484 82.3121097 62.9484 82.3121097 55.9524 80.9724108 55.9524"></polygon>
                <path d="M83.5952862,62.9496 L83.5952862,57.9108 L84.7016803,57.9108 L84.7016803,58.4532 C84.9289721,58.2984 85.1694926,58.152 85.4256468,58.0176 C85.6818011,57.8808 85.9583996,57.8136 86.256645,57.8136 C86.7605353,57.8136 87.1369498,57.966 87.3822807,58.2696 C87.6276115,58.5732 87.7514796,58.9824 87.7514796,59.4996 L87.7514796,62.9496 L86.5476747,62.9496 L86.5476747,59.6748 C86.5476747,59.3304 86.4947602,59.0976 86.3913364,58.9728 C86.2891152,58.8456 86.132777,58.782 85.9259294,58.782 C85.6601543,58.782 85.4316599,58.842 85.2404461,58.962 C85.0492323,59.0808 84.9037175,59.1996 84.7990911,59.316 L84.7990911,62.9496 L83.5952862,62.9496" id="Fill-101" fill="#79BB44"></path>
                <path d="M88.8975595,62.9496 L88.8975595,57.9108 L90.0039535,57.9108 L90.0039535,58.4532 C90.2312454,58.2984 90.4717658,58.152 90.7279201,58.0176 C90.9828717,57.8808 91.2606729,57.8136 91.5577156,57.8136 C92.0628086,57.8136 92.439223,57.966 92.6845539,58.2696 C92.9298848,58.5732 93.0537528,58.9824 93.0537528,59.4996 L93.0537528,62.9496 L91.849948,62.9496 L91.849948,59.6748 C91.849948,59.3304 91.7982361,59.0976 91.6948123,58.9728 C91.5901859,58.8456 91.4350502,58.782 91.2282026,58.782 C90.9624275,58.782 90.7339331,58.842 90.5427193,58.962 C90.3515056,59.0808 90.2047881,59.1996 90.1013643,59.316 L90.1013643,62.9496 L88.8975595,62.9496" id="Fill-102" fill="#79BB44"></path>
                <path d="M96.9958829,60.4296 C96.9958829,59.862 96.9141059,59.4444 96.7541599,59.1792 C96.5906059,58.9152 96.3416673,58.782 96.0049387,58.782 C95.66821,58.782 95.4192714,58.9152 95.2581227,59.1792 C95.0957714,59.4444 95.015197,59.862 95.015197,60.4296 C95.015197,60.9984 95.0957714,61.4148 95.2581227,61.68 C95.4192714,61.944 95.66821,62.076 96.0049387,62.076 C96.3416673,62.076 96.5906059,61.944 96.7541599,61.68 C96.9141059,61.4148 96.9958829,60.9984 96.9958829,60.4296 M93.8101896,60.4296 C93.8101896,60.0288 93.8606989,59.6676 93.9605149,59.3448 C94.0615335,59.022 94.2058457,58.7472 94.3934517,58.5216 C94.5810576,58.2948 94.8107546,58.1208 95.0825428,57.9972 C95.3543309,57.8748 95.662197,57.8136 96.0049387,57.8136 C96.3488829,57.8136 96.6567491,57.8748 96.9285372,57.9972 C97.2003253,58.1208 97.4300223,58.2948 97.6176283,58.5216 C97.8052342,58.7472 97.9495465,59.022 98.0493625,59.3448 C98.150381,59.6676 98.1996877,60.0288 98.1996877,60.4296 C98.1996877,60.8292 98.150381,61.1916 98.0493625,61.5156 C97.9495465,61.8384 97.8052342,62.1132 97.6176283,62.3376 C97.4300223,62.5644 97.2003253,62.7396 96.9285372,62.862 C96.6567491,62.9844 96.3488829,63.0456 96.0049387,63.0456 C95.662197,63.0456 95.3543309,62.9844 95.0825428,62.862 C94.8107546,62.7396 94.5810576,62.5644 94.3934517,62.3376 C94.2058457,62.1132 94.0615335,61.8384 93.9605149,61.5156 C93.8606989,61.1916 93.8101896,60.8292 93.8101896,60.4296" id="Fill-103" fill="#79BB44"></path>
                <polyline id="Fill-104" fill="#79BB44" points="98.4329926 57.9108 99.638 57.9108 100.472606 61.3224 100.491848 61.3224 101.345695 57.9108 102.550703 57.9108 101.103972 62.9496 99.8412398 62.9496 98.4329926 57.9108"></polyline>
                <path d="M105.619743,60.5364 C105.418909,60.5748 105.218074,60.618 105.01724,60.6624 C104.816405,60.708 104.634812,60.768 104.473664,60.8412 C104.311312,60.9156 104.180229,61.0116 104.080413,61.128 C103.979394,61.2432 103.930087,61.3884 103.930087,61.5636 C103.930087,61.7508 103.984204,61.896 104.094844,61.9992 C104.204281,62.1024 104.343783,62.154 104.512147,62.154 C104.609558,62.154 104.709374,62.136 104.814,62.1012 C104.916221,62.0664 105.01724,62.0232 105.114651,61.9704 C105.210859,61.9188 105.304662,61.8612 105.391249,61.7964 C105.479039,61.7316 105.554803,61.674 105.619743,61.6212 L105.619743,60.5364 Z M105.746017,62.9484 L105.667848,62.514 C105.422517,62.6808 105.177186,62.8128 104.93426,62.9052 C104.692537,62.9988 104.412331,63.0456 104.094844,63.0456 C103.867552,63.0456 103.669123,63.0096 103.497151,62.934 C103.326381,62.8608 103.183271,62.76 103.070227,62.634 C102.957182,62.508 102.870595,62.3664 102.81287,62.208 C102.753942,62.0496 102.72508,61.8828 102.72508,61.7088 C102.72508,61.134 102.961993,60.6888 103.434615,60.3756 C103.906035,60.0636 104.634812,59.8476 105.619743,59.7312 L105.619743,59.3052 C105.619743,59.112 105.549993,58.9632 105.410491,58.86 C105.272191,58.7568 105.095409,58.7052 104.881346,58.7052 C104.596329,58.7052 104.37024,58.7688 104.201875,58.8936 C104.033511,59.0196 103.890401,59.1636 103.773749,59.3256 L102.996868,58.734 C103.075037,58.5984 103.182069,58.4736 103.317963,58.3608 C103.453857,58.248 103.606587,58.1496 103.779762,58.0656 C103.951734,57.9816 104.129719,57.9168 104.317325,57.8724 C104.504931,57.8256 104.69374,57.8064 104.881346,57.8136 C105.218074,57.8196 105.509104,57.8592 105.755638,57.93 C106.002171,58.0008 106.203006,58.116 106.361749,58.2744 C106.520493,58.4316 106.637145,58.6404 106.711706,58.8984 C106.785065,59.1576 106.823548,59.4744 106.823548,59.8476 L106.823548,62.2224 C106.823548,62.352 106.829561,62.478 106.84279,62.6004 C106.856019,62.7228 106.882476,62.8392 106.920959,62.9484 L105.746017,62.9484 Z" id="Fill-105" fill="#79BB44"></path>
                <path d="M108.124764,57.9108 L108.124764,56.2428 L109.328569,56.2428 L109.328569,57.9108 L110.319513,57.9108 L110.319513,58.878 L109.328569,58.878 L109.328569,61.728 C109.328569,61.8636 109.364647,61.956 109.4356,62.004 C109.507757,62.0532 109.617193,62.076 109.766316,62.076 C109.856511,62.076 109.949112,62.0664 110.042914,62.0424 C110.136717,62.0208 110.229318,61.9992 110.319513,61.98 L110.319513,62.9688 C110.151149,62.988 109.992405,63.006 109.843283,63.0216 C109.69416,63.0372 109.535416,63.0456 109.368255,63.0456 C108.920887,63.0456 108.602197,62.9424 108.410983,62.736 C108.21977,62.5296 108.124764,62.2452 108.124764,61.8828 L108.124764,58.878 L107.426052,58.878 L107.426052,57.9108 L108.124764,57.9108" id="Fill-106" fill="#79BB44"></path>
                <path d="M111.193805,62.9496 L112.39761,62.9496 L112.39761,57.9108 L111.193805,57.9108 L111.193805,62.9496 Z M111.193805,56.9796 L112.39761,56.9796 L112.39761,55.8564 L111.193805,55.8564 L111.193805,56.9796 Z" id="Fill-107" fill="#79BB44"></path>
                <path d="M116.466013,60.4296 C116.466013,59.862 116.385439,59.4444 116.22429,59.1792 C116.061939,58.9152 115.811797,58.782 115.476271,58.782 C115.139543,58.782 114.889401,58.9152 114.728253,59.1792 C114.565901,59.4444 114.485327,59.862 114.485327,60.4296 C114.485327,60.9984 114.565901,61.4148 114.728253,61.68 C114.889401,61.944 115.139543,62.076 115.476271,62.076 C115.811797,62.076 116.061939,61.944 116.22429,61.68 C116.385439,61.4148 116.466013,60.9984 116.466013,60.4296 M113.281522,60.4296 C113.281522,60.0288 113.330829,59.6676 113.431848,59.3448 C113.532866,59.022 113.675976,58.7472 113.864784,58.5216 C114.051188,58.2948 114.280885,58.1208 114.553875,57.9972 C114.824461,57.8748 115.132327,57.8136 115.476271,57.8136 C115.819013,57.8136 116.126879,57.8748 116.398667,57.9972 C116.670455,58.1208 116.900152,58.2948 117.087758,58.5216 C117.275364,58.7472 117.419677,59.022 117.519493,59.3448 C117.620511,59.6676 117.669818,60.0288 117.669818,60.4296 C117.669818,60.8292 117.620511,61.1916 117.519493,61.5156 C117.419677,61.8384 117.275364,62.1132 117.087758,62.3376 C116.900152,62.5644 116.670455,62.7396 116.398667,62.862 C116.126879,62.9844 115.819013,63.0456 115.476271,63.0456 C115.132327,63.0456 114.824461,62.9844 114.553875,62.862 C114.280885,62.7396 114.051188,62.5644 113.864784,62.3376 C113.675976,62.1132 113.532866,61.8384 113.431848,61.5156 C113.330829,61.1916 113.281522,60.8292 113.281522,60.4296" id="Fill-108" fill="#79BB44"></path>
                <path d="M118.42866,62.9496 L118.42866,57.9108 L119.535054,57.9108 L119.535054,58.4532 C119.761143,58.2984 120.002866,58.152 120.25902,58.0176 C120.513972,57.8808 120.790571,57.8136 121.088816,57.8136 C121.593909,57.8136 121.969121,57.966 122.215654,58.2696 C122.462188,58.5732 122.584853,58.9824 122.584853,59.4996 L122.584853,62.9496 L121.379846,62.9496 L121.379846,59.6748 C121.379846,59.3304 121.328134,59.0976 121.22471,58.9728 C121.121286,58.8456 120.964948,58.782 120.759303,58.782 C120.493528,58.782 120.265033,58.842 120.07382,58.962 C119.882606,59.0808 119.735888,59.1996 119.631262,59.316 L119.631262,62.9496 L118.42866,62.9496" id="Fill-109" fill="#79BB44"></path>
                <path d="M128.13847,60.3324 L129.770401,60.3324 L128.982697,57.2904 L128.964658,57.2904 L128.13847,60.3324 Z M128.119229,55.9428 L129.789643,55.9428 L131.77995,62.9484 L130.449872,62.9484 L130.061431,61.4376 L127.847441,61.4376 L127.430138,62.9484 L126.098857,62.9484 L128.119229,55.9428 Z" id="Fill-110" fill="#79BB44"></path>
                <path d="M134.936781,59.538 C134.936781,59.3052 134.855004,59.1084 134.693855,58.9476 C134.531504,58.7856 134.337885,58.7052 134.111796,58.7052 C133.852033,58.7052 133.641578,58.7856 133.480429,58.9476 C133.318078,59.1084 133.237504,59.3052 133.237504,59.538 C133.237504,59.7708 133.318078,59.9676 133.480429,60.1284 C133.641578,60.2904 133.852033,60.372 134.111796,60.372 C134.337885,60.372 134.531504,60.2904 134.693855,60.1284 C134.855004,59.9676 134.936781,59.7708 134.936781,59.538 M133.888112,62.8524 C133.719747,62.8524 133.582651,62.874 133.475619,62.9148 C133.368587,62.9568 133.280797,63.0072 133.213452,63.066 C133.144903,63.1248 133.098002,63.186 133.071545,63.2544 C133.04629,63.3228 133.034264,63.3816 133.034264,63.4332 C133.034264,63.6276 133.130472,63.7704 133.324091,63.8604 C133.518913,63.9504 133.86887,63.9948 134.373963,63.9948 C134.567582,63.9948 134.731136,63.9744 134.863422,63.9324 C134.995708,63.8904 135.10274,63.84 135.184517,63.7812 C135.265091,63.7248 135.322816,63.6636 135.358894,63.5976 C135.394972,63.5328 135.411809,63.4788 135.411809,63.4332 C135.411809,63.3756 135.387757,63.312 135.339652,63.2448 C135.291548,63.1776 135.207366,63.114 135.087106,63.0552 C134.966846,62.9976 134.810507,62.9496 134.616888,62.9112 C134.422067,62.8716 134.179141,62.8524 133.888112,62.8524 M136.548268,58.6272 C136.406361,58.6272 136.263251,58.632 136.121344,58.6416 C135.978234,58.6512 135.862784,58.6848 135.771387,58.7436 C135.849556,58.854 135.914496,58.9812 135.966208,59.1276 C136.01792,59.2728 136.044377,59.4408 136.044377,59.6352 C136.044377,59.874 136.002286,60.0924 135.921712,60.2892 C135.841138,60.486 135.720877,60.6576 135.563336,60.8028 C135.404593,60.948 135.207366,61.0608 134.970454,61.1424 C134.734743,61.2228 134.456942,61.2636 134.140658,61.2636 C133.874883,61.2636 133.651199,61.2792 133.469606,61.3116 C133.288013,61.344 133.197818,61.4304 133.197818,61.5732 C133.197818,61.7088 133.280797,61.7988 133.445554,61.8444 C133.611513,61.89 133.815955,61.92 134.063691,61.9368 C134.30782,61.9524 134.573595,61.9692 134.858612,61.9848 C135.143628,62.0016 135.409403,62.052 135.654734,62.1348 C135.901268,62.2188 136.106913,62.3508 136.271669,62.5272 C136.437628,62.706 136.520608,62.9628 136.520608,63.2976 C136.520608,63.4788 136.472504,63.6576 136.378701,63.8352 C136.284898,64.014 136.141788,64.1736 135.951777,64.3152 C135.760563,64.458 135.517638,64.5732 135.221797,64.6596 C134.928362,64.746 134.58081,64.7892 134.179141,64.7892 C133.499671,64.7892 132.95369,64.6896 132.5424,64.4892 C132.13111,64.2888 131.926667,63.9888 131.926667,63.588 C131.926667,63.4332 131.954327,63.2976 132.008444,63.1812 C132.063764,63.066 132.134717,62.9688 132.222507,62.8908 C132.310297,62.814 132.406506,62.7552 132.513537,62.7168 C132.620569,62.6772 132.728803,62.658 132.839442,62.658 L132.839442,62.6388 C132.780515,62.6004 132.709561,62.562 132.625379,62.5236 C132.541197,62.484 132.458217,62.436 132.377643,62.3772 C132.297069,62.3196 132.22852,62.2464 132.174403,62.16 C132.117881,62.0724 132.091424,61.9608 132.091424,61.8264 C132.091424,61.7028 132.121489,61.59 132.182822,61.4856 C132.245357,61.3824 132.317513,61.29 132.401695,61.2096 C132.48708,61.1292 132.572465,61.0632 132.660255,61.0104 C132.746842,60.96 132.820201,60.924 132.877926,60.9048 C132.671078,60.7368 132.494296,60.5484 132.348781,60.342 C132.203266,60.1356 132.13111,59.8764 132.13111,59.568 C132.13111,59.3472 132.171998,59.1324 132.25618,58.9236 C132.340362,58.7136 132.466636,58.5252 132.636203,58.3608 C132.803364,58.1964 133.010212,58.0644 133.256745,57.9636 C133.502076,57.864 133.790701,57.8136 134.120214,57.8136 C134.334277,57.8136 134.556758,57.8544 134.786455,57.9336 C135.016152,58.0164 135.208569,58.1244 135.363704,58.26 C135.480357,58.104 135.63429,57.9876 135.825504,57.9108 C136.015515,57.8328 136.257238,57.8004 136.548268,57.8136 L136.548268,58.6272" id="Fill-111" fill="#79BB44"></path>
                <path d="M140.141643,59.8092 C140.128414,59.4612 140.035814,59.1888 139.865045,58.9956 C139.693072,58.8012 139.46097,58.7052 139.169941,58.7052 C138.878911,58.7052 138.648011,58.8012 138.476039,58.9956 C138.30527,59.1888 138.212669,59.4612 138.199441,59.8092 L140.141643,59.8092 Z M138.199441,60.624 C138.212669,61.146 138.319701,61.5204 138.520535,61.7424 C138.720167,61.9668 138.963093,62.076 139.249312,62.076 C139.525911,62.076 139.74719,62.0208 139.908338,61.908 C140.07069,61.794 140.225825,61.65 140.374948,61.476 L141.24924,62.0196 C141.015935,62.3796 140.726108,62.6424 140.379758,62.8044 C140.033409,62.9652 139.617309,63.0468 139.131457,63.0468 C138.800742,63.0468 138.506104,62.9844 138.243937,62.862 C137.98177,62.7384 137.758086,62.5656 137.572885,62.3376 C137.388887,62.112 137.24698,61.8384 137.145961,61.5156 C137.044942,61.1916 136.995636,60.8304 136.995636,60.4296 C136.995636,60.0288 137.044942,59.6676 137.145961,59.3448 C137.24698,59.022 137.391292,58.7472 137.577695,58.5216 C137.766504,58.2948 137.996201,58.1208 138.266786,57.9972 C138.538574,57.8748 138.846441,57.8136 139.190385,57.8136 C139.519898,57.8136 139.813333,57.876 140.068284,58.002 C140.324439,58.128 140.539704,58.2972 140.714082,58.5108 C140.888459,58.7244 141.021948,58.9716 141.112143,59.2524 C141.203541,59.5332 141.24924,59.826 141.24924,60.1284 L141.24924,60.624 L138.199441,60.624 Z" id="Fill-112" fill="#79BB44"></path>
                <path d="M142.141571,62.9496 L142.141571,57.9108 L143.249167,57.9108 L143.249167,58.4532 C143.475257,58.2984 143.71698,58.152 143.973134,58.0176 C144.228086,57.8808 144.504684,57.8136 144.802929,57.8136 C145.308022,57.8136 145.683234,57.966 145.929768,58.2696 C146.175099,58.5732 146.297764,58.9824 146.297764,59.4996 L146.297764,62.9496 L145.093959,62.9496 L145.093959,59.6748 C145.093959,59.3304 145.042247,59.0976 144.938823,58.9728 C144.8354,58.8456 144.680264,58.782 144.472214,58.782 C144.207641,58.782 143.979147,58.842 143.787933,58.962 C143.596719,59.0808 143.450002,59.1996 143.346578,59.316 L143.346578,62.9496 L142.141571,62.9496" id="Fill-113" fill="#79BB44"></path>
                <path d="M150.241097,59.5476 C150.143686,59.334 150.027033,59.154 149.891139,59.0052 C149.755245,58.8576 149.542385,58.782 149.250152,58.782 C148.913424,58.782 148.664485,58.9152 148.502134,59.1792 C148.340985,59.4444 148.260411,59.8608 148.260411,60.4284 C148.260411,60.9984 148.34339,61.4148 148.506944,61.6788 C148.672903,61.9452 148.933868,62.076 149.289838,62.076 C149.554411,62.076 149.768474,61.9992 149.929623,61.8444 C150.091974,61.6896 150.233881,61.4988 150.357749,61.2732 L151.270524,61.7856 C151.025193,62.238 150.742582,62.5632 150.425095,62.76 C150.107608,62.9568 149.716762,63.0528 149.250152,63.0456 C148.907411,63.0456 148.599545,62.9844 148.327757,62.862 C148.055968,62.7384 147.826271,62.5656 147.638665,62.3376 C147.451059,62.112 147.306747,61.8384 147.206931,61.5156 C147.105913,61.1916 147.055403,60.8304 147.055403,60.4284 C147.055403,60.0288 147.105913,59.6676 147.206931,59.3448 C147.306747,59.022 147.451059,58.7472 147.638665,58.5216 C147.826271,58.2948 148.055968,58.1208 148.327757,57.9972 C148.599545,57.8748 148.907411,57.8136 149.250152,57.8136 C149.728788,57.8136 150.146091,57.9312 150.498454,58.1676 C150.852019,58.4028 151.099755,58.734 151.241662,59.1612 L150.241097,59.5476" id="Fill-114" fill="#79BB44"></path>
                <path d="M151.678206,63.7632 C151.768401,63.7824 151.852584,63.7932 151.930753,63.7968 C152.007719,63.8004 152.093104,63.8016 152.183299,63.8016 C152.390147,63.8016 152.557309,63.7716 152.683582,63.7104 C152.809855,63.648 152.908468,63.5472 152.979422,63.4044 C153.038349,63.2808 153.084048,63.1776 153.121329,63.0948 C153.156204,63.0096 153.173041,62.9172 153.173041,62.814 C153.173041,62.724 153.156204,62.6256 153.121329,62.5236 C153.084048,62.4204 153.050375,62.316 153.017905,62.2128 L151.668586,57.9108 L152.882011,57.9108 L153.71782,61.0116 L153.737061,61.0116 L154.60053,57.9108 L155.805537,57.9108 L154.212089,62.9592 C154.077398,63.3204 153.945112,63.6192 153.820041,63.8556 C153.693768,64.0908 153.555468,64.278 153.407548,64.4172 C153.257223,64.5564 153.091264,64.6524 152.907266,64.7076 C152.722065,64.7628 152.506799,64.7904 152.261468,64.7904 C152.111143,64.7904 151.995693,64.7868 151.911511,64.7796 C151.827329,64.7748 151.750362,64.764 151.678206,64.7508 L151.678206,63.7632" id="Fill-115" fill="#79BB44"></path>
            </g>
        </g>
    </g>
</svg>